<?xml version="1.0" encoding="UTF-8" standalone="no"?>
<!-- Created with Inkscape (http://www.inkscape.org/) -->

<svg
   xmlns:dc="http://purl.org/dc/elements/1.1/"
   xmlns:cc="http://creativecommons.org/ns#"
   xmlns:rdf="http://www.w3.org/1999/02/22-rdf-syntax-ns#"
   xmlns:svg="http://www.w3.org/2000/svg"
   xmlns="http://www.w3.org/2000/svg"
   xmlns:sodipodi="http://sodipodi.sourceforge.net/DTD/sodipodi-0.dtd"
   xmlns:inkscape="http://www.inkscape.org/namespaces/inkscape"
   width="350mm"
   height="297mm"
   viewBox="0 0 350 297"
   version="1.1"
   id="svg1954"
   inkscape:version="0.92.3 (2405546, 2018-03-11)"
   sodipodi:docname="field-map-compaction.svg"
   inkscape:export-filename="C:\xampp\htdocs\SoilInfrographic-v4.0.4\img\field.png"
   inkscape:export-xdpi="96"
   inkscape:export-ydpi="96">
  <defs
     id="defs1948" />
  <sodipodi:namedview
     id="base"
     pagecolor="#ffffff"
     bordercolor="#666666"
     borderopacity="1.0"
     inkscape:pageopacity="0.0"
     inkscape:pageshadow="2"
     inkscape:zoom="0.49497475"
     inkscape:cx="78.747578"
     inkscape:cy="549.85938"
     inkscape:document-units="mm"
     inkscape:current-layer="layer1"
     showgrid="false"
     inkscape:window-width="1920"
     inkscape:window-height="1001"
     inkscape:window-x="-9"
     inkscape:window-y="-9"
     inkscape:window-maximized="1"
     inkscape:pagecheckerboard="true" />
  <metadata
     id="metadata1951">
    <rdf:RDF>
      <cc:Work
         rdf:about="">
        <dc:format>image/svg+xml</dc:format>
        <dc:type
           rdf:resource="http://purl.org/dc/dcmitype/StillImage" />
        <dc:title></dc:title>
      </cc:Work>
    </rdf:RDF>
  </metadata>
  <g
     inkscape:label="Layer 1"
     inkscape:groupmode="layer"
     id="layer1">
    <g
       id="g2510"
       transform="matrix(1.0838082,0,0,1.0838082,-18.157808,-10.071418)">
      <path
         style="fill:#e3e055;stroke-width:0.58571583"
         d="m 71.225736,248.5971 c -1.932862,-0.23981 -5.313682,-0.46464 -7.512932,-0.4996 -3.633206,-0.0577 -4.16145,-0.22638 -5.780171,-1.8451 l -1.781533,-1.78154 0.343541,-9.49349 c 0.188947,-5.22143 0.600932,-26.88926 0.915521,-48.15074 0.314589,-21.26149 0.722188,-42.49412 0.905776,-47.18364 0.183588,-4.68952 0.487393,-26.41852 0.675121,-48.286679 0.187729,-21.868163 0.578219,-40.383371 0.867755,-41.144909 0.319194,-0.839543 1.598095,-1.858664 3.248717,-2.588812 2.57763,-1.140209 3.877171,-1.207692 24.45601,-1.269966 20.390149,-0.0617 22.108779,0.01471 27.800609,1.236081 3.33678,0.716018 7.18258,1.301851 8.54622,1.301851 1.36363,0 3.7732,0.40951 5.35458,0.910023 3.99846,1.265526 14.99545,2.077218 31.86817,2.352201 29.07021,0.473771 37.21575,0.712013 38.19566,1.117154 0.55149,0.228012 1.17106,0.945011 1.37683,1.593332 1.11602,3.516259 1.32798,42.831239 0.43672,81.006084 -0.61128,26.18292 -0.26177,25.39091 -11.21291,25.40934 -3.31073,0.006 -5.79491,0.28044 -6.29645,0.69669 -0.63094,0.52362 -0.83522,2.45026 -0.85711,8.08363 -0.0158,4.06789 -0.24886,11.00579 -0.51788,15.41755 -0.54379,8.91776 -1.62939,12.24532 -4.787,14.67297 -0.9443,0.72599 -2.83215,2.49202 -4.19523,3.92451 -12.6544,13.29875 -17.97524,17.70014 -24.90423,20.60074 -1.51793,0.63543 -3.17385,1.3796 -3.67982,1.65371 -0.50597,0.27411 -2.74633,1.2022 -4.97859,2.06243 -3.82279,1.47316 -11.27534,4.65448 -15.18723,6.48308 -2.51896,1.17747 -6.86669,2.59855 -7.98071,2.60852 -0.52367,0.005 -2.50046,0.70359 -4.39287,1.5531 -4.02042,1.80481 -9.89838,4.00585 -20.272765,7.59132 -6.663068,2.3028 -7.977866,2.56921 -12.300033,2.49231 -2.661709,-0.0474 -6.420904,-0.28233 -8.353766,-0.52215 z"
         id="path2524"
         inkscape:connector-curvature="0" />
      <path
         style="fill:#f3ec29;stroke-width:0.58571583"
         d="m 69.761446,248.00403 c -1.449646,-0.25794 -4.295028,-0.48852 -6.323069,-0.5124 -3.100837,-0.0365 -3.916022,-0.27209 -5.125013,-1.48109 -2.823045,-2.82304 -1.437415,-5.24014 4.835445,-8.43498 2.090796,-1.06487 3.474433,-1.25595 9.0947,-1.25595 5.376873,0 6.899284,-0.19358 8.061297,-1.025 1.414568,-1.01213 3.858022,-2.34943 10.298325,-5.63627 1.998053,-1.01972 3.72551,-2.40879 4.384452,-3.52561 0.642589,-1.08911 2.420582,-2.54045 4.346814,-3.54822 3.424773,-1.79177 4.824943,-3.01951 4.179593,-3.66487 -0.21225,-0.21225 -1.10642,0.1909 -1.98705,0.89589 -3.851395,3.08327 -4.391097,3.30331 -7.904262,3.22254 l -3.461709,-0.0796 1.295796,1.37932 c 2.167752,2.30746 2.122711,2.34458 -10.788727,8.89121 -4.181924,2.12041 -7.34425,2.49618 -13.542313,1.60922 -1.71569,-0.24552 -2.963992,-0.0137 -4.663143,0.86591 -1.276153,0.66065 -2.648344,1.20118 -3.049312,1.20118 -0.576675,0 -0.663499,-6.93068 -0.415452,-33.16331 0.17247,-18.23982 0.576782,-34.5154 0.898471,-36.16795 0.531701,-2.73141 0.665797,-3.90946 0.979314,-8.60342 0.05506,-0.82433 0.442386,-1.96687 0.860729,-2.53899 0.725518,-0.99221 0.880954,-0.98569 3.367866,0.14121 1.433984,0.64978 3.025527,1.30631 3.536762,1.45896 1.001607,0.29906 3.75394,7.4042 4.579052,11.82081 0.493704,2.64267 1.328235,3.95317 4.15574,6.52598 2.883784,2.62402 3.0414,1.30874 0.204392,-1.7056 -2.514818,-2.67201 -3.068251,-3.72747 -4.222886,-8.05359 -2.432019,-9.11214 -3.66589,-10.53572 -10.526785,-12.14532 l -4.295252,-1.00769 0.367065,-19.04856 c 0.403814,-20.9556 0.570962,-23.10807 1.759027,-22.65217 1.097813,0.42128 1.597923,-0.2413 0.856468,-1.1347 -0.431953,-0.52048 -0.435217,-1.41241 -0.0108,-2.94954 0.334621,-1.2119 0.549654,-2.21827 0.477849,-2.23638 -0.0718,-0.0181 -0.657697,-0.32545 -1.301984,-0.68295 -1.144864,-0.63527 -1.170755,-1.24131 -1.14159,-26.721371 0.02743,-23.963366 0.11399,-26.19979 1.070561,-27.659701 1.582925,-2.415849 4.000397,-3.060856 13.078648,-3.489521 7.533154,-0.355707 8.421416,-0.293474 9.371945,0.656611 1.236739,1.23616 5.204009,1.324756 11.591955,0.258869 4.150423,-0.692536 11.088745,-0.298623 18.450045,1.047475 8.75597,1.601129 14.44623,2.78711 15.34699,3.198667 0.54833,0.250528 1.24515,0.302114 1.5485,0.114635 0.30335,-0.187479 1.55372,0.07787 2.77862,0.58966 1.86489,0.779203 2.58232,0.813288 4.41154,0.209593 1.20145,-0.396517 2.64489,-0.544258 3.20762,-0.328316 0.56274,0.215943 10.64646,0.643854 22.40827,0.950914 15.16499,0.395905 21.50831,0.757647 21.8087,1.24369 0.31103,0.50325 1.02183,0.398531 2.67464,-0.394041 3.01367,-1.445146 10.87616,-1.567493 12.25299,-0.190666 0.76503,0.765034 0.96888,2.597132 1.09535,9.844702 l 0.15539,8.904742 -1.4564,0.553724 c -1.86918,0.71066 -4.96913,2.911233 -4.60874,3.271622 0.15203,0.152029 0.85041,-0.03077 1.55196,-0.406233 0.70155,-0.375458 2.04198,-0.779648 2.97874,-0.898203 1.31454,-0.166364 1.70321,0.01868 1.70321,0.81091 0,0.564554 -0.30914,1.335599 -0.68697,1.713433 -0.52549,0.525484 -0.52031,1.052771 0.022,2.243096 0.58181,1.276949 0.5521,1.72639 -0.16563,2.50518 -0.48106,0.521981 -2.42593,2.612424 -4.32192,4.645426 -2.15067,2.306092 -3.95396,4.949679 -4.79445,7.028589 -0.74095,1.832723 -1.83709,4.154049 -2.43587,5.158499 -0.59877,1.004455 -1.09347,2.190535 -1.09933,2.635725 -0.006,0.44519 -0.79658,1.96928 -1.75715,3.38687 -2.0068,2.96159 -2.2042,3.85876 -0.66816,3.03669 0.59309,-0.31741 1.81398,-2.23758 2.7131,-4.26705 3.8274,-8.639093 5.50668,-11.978505 6.39385,-12.714791 0.51885,-0.430589 0.94335,-1.083978 0.94335,-1.451966 0,-0.818995 4.88548,-5.630363 5.71709,-5.630363 0.87466,0 1.38266,11.418149 0.87095,19.57624 l -0.43803,6.98337 -2.63572,1.37583 c -1.44964,0.75671 -3.36127,2.22671 -4.24806,3.26667 -2.41038,2.82671 -5.8988,10.07082 -7.39776,15.3623 -0.73005,2.57715 -1.58498,5.53308 -1.89984,6.56873 -0.31486,1.03566 -0.64452,3.01245 -0.73257,4.39287 -0.0881,1.38042 -1.11015,4.88201 -2.27132,7.7813 -2.16556,5.40715 -6.40524,19.73004 -7.14666,24.14354 -0.2284,1.35962 -0.86162,3.07284 -1.40715,3.80715 -0.54553,0.7343 -1.35629,2.05499 -1.80168,2.93486 -2.28511,4.51415 -9.54092,11.20381 -16.98963,15.66399 -3.27775,1.96267 -4.02242,5.36642 -1.36516,6.23989 3.20498,1.05352 7.2036,3.25203 7.74098,4.25613 0.34032,0.63589 0.61875,2.25708 0.61875,3.60267 0,2.00668 -0.431,2.96129 -2.3974,5.30994 -1.59696,1.90739 -2.84862,2.86344 -3.74883,2.86344 -0.74329,0 -3.55215,1.00728 -6.24191,2.2384 -2.68976,1.23112 -6.73548,2.81084 -8.99048,3.51049 -12.21735,3.7906 -17.7767,5.37971 -18.82044,5.37971 -0.64055,0 -2.86195,0.6742 -4.93643,1.49822 -2.07447,0.82403 -5.74857,2.16678 -8.16465,2.98391 -2.41608,0.81713 -4.78823,1.81756 -5.27144,2.22319 -0.48322,0.40563 -1.66929,1.13535 -2.63572,1.62159 -4.621301,2.32513 -7.924551,4.45963 -11.30836,7.30727 l -3.694051,3.10872 -6.555976,-0.0733 c -3.605783,-0.0403 -7.742045,-0.28435 -9.191692,-0.5423 z m 10.791668,-25.08457 c 0.298997,-0.48378 -2.266533,-1.24274 -4.200868,-1.24274 -0.713214,0 -0.740851,0.16414 -0.147925,0.87857 0.787787,0.94923 3.829773,1.20397 4.348793,0.36417 z M 72.10431,220.247 c 0,-0.14206 -0.263572,-0.42119 -0.585716,-0.62029 -0.322144,-0.19909 -0.585716,-0.0829 -0.585716,0.25829 0,0.34116 0.263572,0.62029 0.585716,0.62029 0.322144,0 0.585716,-0.11623 0.585716,-0.25829 z m -2.635722,-3.25601 c -1.875618,-1.95772 -2.635721,-2.20293 -2.635721,-0.8503 0,0.49877 0.856609,1.27917 1.903577,1.73422 2.615593,1.13685 2.639968,1.10742 0.732144,-0.88392 z m 41.087522,-2.94798 c 1.88479,-1.78245 4.74474,-4.60236 6.35546,-6.26645 1.61072,-1.66409 3.52162,-3.60801 4.24644,-4.31982 0.72482,-0.71182 1.31786,-1.50377 1.31786,-1.7599 0,-0.80033 -3.50063,1.47823 -3.8281,2.49171 -0.17093,0.52904 -2.94426,3.39192 -6.16296,6.36197 -5.46397,5.04186 -8.43372,8.49037 -6.22679,7.23063 0.47916,-0.27352 2.4133,-1.95567 4.29809,-3.73814 z m -42.749619,-2.46989 c -0.162485,-0.40268 -0.295426,-0.0732 -0.295426,0.73214 0,0.80536 0.132941,1.13483 0.295426,0.73215 0.162485,-0.40268 0.162485,-1.06161 0,-1.46429 z m 1.486764,-3.86451 1.2289,-1.94091 -1.698215,0.19377 c -1.451841,0.16566 -1.725522,0.47905 -1.886433,2.1601 -0.232154,2.4253 0.657424,2.26936 2.355748,-0.41296 z m 6.145441,-3.7498 2.229914,-1.31786 -1.958364,-0.18762 c -1.249174,-0.11968 -2.362739,0.17833 -3.075008,0.82292 -2.486446,2.2502 -0.618598,2.70497 2.803458,0.68256 z m 8.637774,-4.0067 1.206446,-1.26204 -2.307849,0.34598 c -1.269317,0.19029 -2.850749,0.9139 -3.514295,1.60802 l -1.206446,1.26205 2.307849,-0.34599 c 1.269317,-0.19028 2.85075,-0.9139 3.514295,-1.60802 z m 41.32798,-0.57687 c 0,-0.27757 -0.39536,-0.35296 -0.87857,-0.16754 -0.48322,0.18544 -0.87858,0.56425 -0.87858,0.84181 0,0.27757 0.39536,0.35296 0.87858,0.16754 0.48321,-0.18544 0.87857,-0.56425 0.87857,-0.84181 z m 6.11123,-5.50711 c 3.33429,-3.28143 3.70956,-3.82007 2.66142,-3.82007 -0.76924,0 -5.74303,4.57394 -6.48851,5.9669 -1.07063,2.00049 0.51907,1.10873 3.82709,-2.14683 z m -37.226176,1.52613 c 1.370382,-1.05379 1.373111,-1.07565 0.173647,-1.38932 -1.461461,-0.38218 -3.379135,0.86187 -2.792277,1.81143 0.560143,0.90633 0.978854,0.83884 2.61863,-0.42211 z m 11.669186,-6.04905 c 0.7171,-0.71711 0.98338,-2.81144 0.35745,-2.81144 -0.45002,0 -2.5384,2.5049 -2.56369,3.07501 -0.0305,0.68858 1.42838,0.51429 2.20624,-0.26357 z m 35.7101,-6.65668 c -0.5545,-0.5545 -6.30717,5.02332 -6.30717,6.11546 0,0.58007 1.27568,-0.3372 3.34028,-2.4018 1.83715,-1.83715 3.17225,-3.5083 2.96689,-3.71366 z m -39.05472,0.10138 c -0.37215,-0.4484 -1.17939,-0.94675 -1.79388,-1.10744 -0.96672,-0.25281 -1.024061,-0.14296 -0.42563,0.81527 0.38039,0.6091 1.18763,1.10745 1.79387,1.10745 0.87534,0 0.96296,-0.16784 0.42564,-0.81528 z m -5.060407,-2.63319 c -0.306036,-0.28593 -1.21536,-0.69228 -2.02072,-0.903 l -1.464289,-0.38312 1.464289,0.88225 c 1.631928,0.98325 2.915378,1.23977 2.02072,0.40387 z m 49.161857,-2.15097 c 0.17801,-0.46389 0.15124,-0.84343 -0.0595,-0.84343 -0.57827,0 -3.09438,2.47529 -3.09438,3.04418 0,0.72658 2.7731,-1.20846 3.15388,-2.20075 z m 4.4418,-7.79731 c 0.015,-0.64827 -0.15143,-0.66273 -0.85995,-0.0747 -0.48321,0.40103 -0.87857,1.2744 -0.87857,1.94081 0,1.19114 0.0146,1.19241 0.85995,0.0747 0.47296,-0.62532 0.86832,-1.49869 0.87857,-1.94081 z m 6.01815,-5.34097 c 7.58492,-7.30712 8.51732,-8.39066 9.29759,-10.80475 0.42292,-1.30847 1.23207,-3.17903 1.79812,-4.15679 0.75881,-1.31071 1.00723,-2.92639 0.94561,-6.15001 -0.046,-2.40475 0.25125,-5.37833 0.66048,-6.60795 0.74673,-2.24375 0.59252,-3.15253 -0.42796,-2.52185 -0.73763,0.45588 -1.53791,5.65234 -1.5896,10.32183 -0.0765,6.90593 -1.67663,9.66012 -10.47678,18.03243 -4.4159,4.2012 -5.03555,4.86852 -5.03555,5.42282 0,0.99695 0.51316,0.62115 4.82809,-3.53573 z m -11.27096,2.04482 c 0.40673,-0.49009 0.47016,-0.87857 0.14343,-0.87857 -0.32214,0 -0.91383,0.39535 -1.31487,0.87857 -0.40673,0.49009 -0.47016,0.87857 -0.14343,0.87857 0.32214,0 0.91383,-0.39535 1.31487,-0.87857 z m 24.40225,-35.58223 c -0.16248,-0.40268 -0.29543,-0.0732 -0.29543,0.73214 0,0.80536 0.13295,1.13482 0.29543,0.73214 0.16249,-0.40267 0.16249,-1.06161 0,-1.46428 z m -37.58086,-3.67889 c -1.50266,-1.23171 -2.36521,-1.44073 -5.95568,-1.44322 -2.3092,-0.002 -4.61545,-0.16289 -5.12502,-0.35843 -0.50956,-0.19554 -0.92648,-0.1167 -0.92648,0.17519 0,0.97685 3.87459,1.94558 6.49081,1.62285 1.70778,-0.21066 3.08574,-0.0318 4.05208,0.526 2.42048,1.39713 3.38588,1.05273 1.46429,-0.52239 z m 41.7199,-3.78899 c 2.30779,-4.47706 5.59939,-9.39691 7.41589,-11.08427 1.47665,-1.37168 2.0395,-2.97291 1.04501,-2.97291 -0.80569,0 -2.82502,2.48934 -4.13189,5.0936 -0.67837,1.35184 -1.58594,2.6697 -2.01681,2.92858 -0.95459,0.57356 -5.082,8.28978 -5.082,9.50084 0,1.29999 0.88216,0.19615 2.7698,-3.46584 z m -59.58423,0 c 0,-0.32214 -0.0996,-0.58572 -0.22133,-0.58572 -0.12173,0 -1.17602,-0.39889 -2.34287,-0.88643 -1.3304,-0.55588 -2.12153,-0.65454 -2.12153,-0.26459 0,0.34203 0.85661,0.99417 1.90358,1.44923 2.30368,1.00127 2.78215,1.05072 2.78215,0.28751 z m -8.58017,-3.82343 c -0.34371,-0.89568 -2.54843,-2.38628 -2.54843,-1.72297 0,0.19358 0.27284,0.86179 0.60632,1.48489 0.72385,1.35252 2.45101,1.56425 1.94211,0.23808 z m -6.657196,-8.50364 c -1.104578,-0.84869 -2.373526,-1.10935 -5.262692,-1.08103 -3.08438,0.0302 -3.486737,0.13325 -2.119395,0.54265 0.928265,0.27792 2.377912,0.37725 3.221437,0.22072 0.927299,-0.17207 2.228414,0.15555 3.290827,0.82863 2.188589,1.38656 2.840799,1.00342 0.869823,-0.51097 z M 80.161604,110.83 c -0.13219,-0.40268 -1.14255,-0.81683 -2.245242,-0.92033 -2.944372,-0.27637 -1.150973,1.14626 1.99749,1.58453 0.268457,0.0374 0.379942,-0.26152 0.247752,-0.6642 z m -6.300147,-1.54243 c 0,-0.2846 -0.593037,-0.65363 -1.31786,-0.82009 -0.724824,-0.16645 -2.763787,-0.85611 -4.53103,-1.53256 -3.697469,-1.41531 -3.522563,-1.37835 -3.522563,-0.74434 0,0.26708 1.251967,1.04702 2.78215,1.7332 3.843589,1.72358 6.589303,2.29186 6.589303,1.36379 z M 192.76177,78.150775 c 0,-0.315785 -0.52253,-0.243746 -1.17143,0.1615 -0.64429,0.402364 -1.17143,0.941015 -1.17143,1.197003 0,0.255987 0.52714,0.183312 1.17143,-0.1615 0.64429,-0.344812 1.17143,-0.883463 1.17143,-1.197003 z m -75.55734,-7.003018 c 0,-0.322144 -0.27913,-0.585716 -0.62029,-0.585716 -0.34115,0 -0.45738,0.263572 -0.25828,0.585716 0.19909,0.322143 0.47822,0.585715 0.62028,0.585715 0.14206,0 0.25829,-0.263572 0.25829,-0.585715 z m -16.781,168.650803 c 1.47304,-1.15869 6.43732,-2.41566 5.47904,-1.3873 -0.50337,0.54018 -5.64361,2.59282 -6.494934,2.5936 -0.285051,2.6e-4 0.172101,-0.54257 1.015894,-1.2063 z m 7.56557,-3.19328 c 0.89117,-0.77958 2.86796,-1.80873 4.39287,-2.28701 4.51554,-1.41626 6.97869,-2.38649 7.82953,-3.08402 0.988,-0.80998 7.60942,-1.27879 7.35551,-0.52078 -0.24721,0.73802 -1.38241,1.26427 -4.50532,2.08855 -1.44965,0.38263 -3.76296,1.19883 -5.14068,1.81378 -1.37773,0.61496 -2.90255,1.1181 -3.38848,1.1181 -0.48593,0 -1.46727,0.36369 -2.18076,0.80819 -0.71349,0.4445 -2.35155,0.95949 -3.64012,1.1444 l -2.34286,0.33621 z m 54.98434,-28.83931 c -1.15151,-3.00494 -3.20199,-4.82574 -5.96575,-5.29756 -4.47568,-0.76405 -3.54446,-4.15659 1.89795,-6.91446 3.18436,-1.61364 9.25617,-7.04068 9.25617,-8.27325 0,-0.39853 0.62832,-0.88231 1.39627,-1.07505 0.88841,-0.22298 1.77348,-1.18694 2.43334,-2.65025 0.57039,-1.2649 1.39171,-2.59414 1.82516,-2.95388 0.43346,-0.35973 0.7881,-1.22207 0.7881,-1.91631 0,-0.69423 0.40375,-1.83867 0.89722,-2.5432 1.05303,-1.50341 3.20279,-9.54622 3.20279,-11.98247 0,-0.92773 0.52715,-2.72007 1.17143,-3.98298 0.64429,-1.26291 1.17144,-2.93008 1.17144,-3.70483 0,-0.77475 0.49346,-2.03722 1.09659,-2.80548 0.60312,-0.76827 1.29191,-2.58293 1.53064,-4.03258 0.23873,-1.44964 1.07531,-4.68066 1.85906,-7.18005 0.78376,-2.49937 1.94853,-6.94302 2.58839,-9.87475 0.74673,-3.42139 1.6887,-6.01916 2.63016,-7.25348 0.80672,-1.05767 1.5778,-2.49957 1.71351,-3.2042 0.45707,-2.3734 0.95739,-3.53045 1.52662,-3.53045 0.3113,0 1.11029,-0.92251 1.77553,-2.05001 0.74811,-1.26795 1.66124,-2.05 2.39361,-2.05 1.13377,0 1.16938,0.25506 0.83825,6.00358 -0.32512,5.64412 -1.12593,9.93928 -2.10219,11.27503 -0.23545,0.32215 -0.89706,2.36788 -1.47027,4.54606 -0.5732,2.17819 -1.27567,4.10464 -1.56103,4.28101 -0.74035,0.45756 -0.6417,5.39289 0.15165,7.58687 0.58736,1.62432 0.50394,2.07949 -0.67286,3.67119 -0.73884,0.99935 -1.50506,2.81938 -1.7027,4.04454 -0.35558,2.20414 -0.39004,2.22931 -3.28073,2.39615 -3.52575,0.2035 -6.45157,1.46953 -7.4484,3.22299 -0.5191,0.91311 -0.78214,5.34666 -0.89341,15.05845 -0.17844,15.57309 -0.71158,18.50118 -3.86165,21.2084 -1.01558,0.8728 -2.11008,1.59942 -2.43222,1.61471 -0.32215,0.0153 -1.16901,0.88262 -1.88192,1.92738 -1.70651,2.50086 -7.02249,8.0496 -7.71194,8.0496 -0.29786,0 -0.81933,-0.72483 -1.15881,-1.61072 z"
         id="path2522"
         inkscape:connector-curvature="0" />
      <path
         style="fill:#e4b015;stroke-width:0.58571583;stroke:#e4b015;stroke-opacity:1"
         d="m 69.761446,248.00403 c -1.449646,-0.25794 -4.295028,-0.48852 -6.323069,-0.5124 -3.100837,-0.0365 -3.916022,-0.27209 -5.125013,-1.48109 -2.823045,-2.82304 -1.437415,-5.24014 4.835445,-8.43498 2.090796,-1.06487 3.474433,-1.25595 9.0947,-1.25595 5.376873,0 6.899284,-0.19358 8.061297,-1.025 1.414568,-1.01213 3.858022,-2.34943 10.298325,-5.63627 1.998053,-1.01972 3.72551,-2.40879 4.384452,-3.52561 0.642589,-1.08911 2.420582,-2.54045 4.346814,-3.54822 3.424773,-1.79177 4.824943,-3.01951 4.179593,-3.66487 -0.21225,-0.21225 -1.10642,0.1909 -1.98705,0.89589 -4.200634,3.36286 -3.956145,3.2978 -11.797088,3.13916 -6.70118,-0.13557 -14.941861,-1.27809 -16.791912,-2.32808 -0.40137,-0.2278 -1.762669,-1.60026 -3.02511,-3.0499 -1.908267,-2.19125 -2.283392,-3.03511 -2.224462,-5.00407 0.09075,-3.03208 2.254273,-6.5885 4.317891,-7.09779 0.859287,-0.21207 2.611511,-1.04401 3.893832,-1.84877 1.282322,-0.80475 3.310428,-1.68315 4.506911,-1.95198 1.196482,-0.26883 3.097201,-1.11432 4.223813,-1.87886 1.126619,-0.76454 3.423709,-1.83992 5.104643,-2.38972 1.68094,-0.54981 3.997786,-1.63944 5.148547,-2.42141 1.150768,-0.78196 2.386927,-1.42175 2.747031,-1.42175 0.360098,0 1.746277,-0.79072 3.080394,-1.75715 1.33412,-0.96643 2.90239,-1.75715 3.48504,-1.75715 1.19384,0 2.46507,-1.06842 2.46507,-2.07181 0,-1.37301 -4.96513,-5.81439 -8.421928,-7.53353 -3.209576,-1.59619 -4.310177,-1.81543 -10.5038,-2.09242 l -6.918557,-0.30941 -3.070575,-3.22144 c -2.724129,-2.85797 -3.219938,-3.78316 -4.394387,-8.20002 -2.421445,-9.10655 -3.659231,-10.53533 -10.52182,-12.14532 l -4.295252,-1.00769 0.367065,-19.04856 c 0.403814,-20.9556 0.570962,-23.10807 1.759027,-22.65217 1.097813,0.42128 1.597923,-0.2413 0.856468,-1.1347 -0.431953,-0.52048 -0.435217,-1.41241 -0.0108,-2.94954 0.334621,-1.2119 0.549654,-2.21827 0.477849,-2.23638 -0.0718,-0.0181 -0.657697,-0.32545 -1.301984,-0.68295 -1.144864,-0.63527 -1.170755,-1.24131 -1.14159,-26.721371 0.02743,-23.963366 0.11399,-26.19979 1.070561,-27.659701 1.582925,-2.415849 4.000397,-3.060856 13.078648,-3.489521 7.533154,-0.355707 8.421416,-0.293474 9.371945,0.656611 1.236739,1.23616 5.204009,1.324756 11.591955,0.258869 4.150423,-0.692536 11.088745,-0.298623 18.450045,1.047475 8.75597,1.601129 14.44623,2.78711 15.34699,3.198667 0.54833,0.250528 1.24515,0.302114 1.5485,0.114635 0.30335,-0.187479 1.55372,0.07787 2.77862,0.58966 1.86489,0.779203 2.58232,0.813288 4.41154,0.209593 1.20145,-0.396517 2.64489,-0.544258 3.20762,-0.328316 0.56274,0.215943 10.64646,0.643854 22.40827,0.950914 15.16499,0.395905 21.50831,0.757647 21.8087,1.24369 0.31103,0.50325 1.02183,0.398531 2.67464,-0.394041 3.01367,-1.445146 10.87616,-1.567493 12.25299,-0.190666 0.76503,0.765034 0.96888,2.597132 1.09535,9.844702 l 0.15539,8.904742 -1.4564,0.553724 c -1.86918,0.71066 -4.96913,2.911233 -4.60874,3.271622 0.15203,0.152029 0.85041,-0.03077 1.55196,-0.406233 0.70155,-0.375458 2.04198,-0.779648 2.97874,-0.898203 1.31454,-0.166364 1.70321,0.01868 1.70321,0.81091 0,0.564554 -0.30914,1.335599 -0.68697,1.713433 -0.52549,0.525484 -0.52031,1.052771 0.022,2.243096 0.58181,1.276949 0.5521,1.72639 -0.16563,2.50518 -0.48106,0.521981 -2.42593,2.612424 -4.32192,4.645426 -2.15067,2.306092 -3.95396,4.949679 -4.79445,7.028589 -0.74095,1.832723 -1.83709,4.154049 -2.43587,5.158499 -0.59877,1.004455 -1.09347,2.190535 -1.09933,2.635725 -0.006,0.44519 -0.79658,1.96928 -1.75715,3.38687 -2.0068,2.96159 -2.2042,3.85876 -0.66816,3.03669 0.59309,-0.31741 1.81398,-2.23758 2.7131,-4.26705 3.8274,-8.639093 5.50668,-11.978505 6.39385,-12.714791 0.51885,-0.430589 0.94335,-1.083978 0.94335,-1.451966 0,-0.818995 4.88548,-5.630363 5.71709,-5.630363 0.87466,0 1.38266,11.418149 0.87095,19.57624 l -0.43803,6.98337 -2.63572,1.37583 c -1.44964,0.75671 -3.36127,2.22671 -4.24806,3.26667 -2.41038,2.82671 -5.8988,10.07082 -7.39776,15.3623 -0.73005,2.57715 -1.58498,5.53308 -1.89984,6.56873 -0.31486,1.03566 -0.64452,3.01245 -0.73257,4.39287 -0.0881,1.38042 -1.11015,4.88201 -2.27132,7.7813 -2.16556,5.40715 -6.40524,19.73004 -7.14666,24.14354 -0.2284,1.35962 -0.86162,3.07284 -1.40715,3.80715 -0.54553,0.7343 -1.35629,2.05499 -1.80168,2.93486 -2.28511,4.51415 -9.54092,11.20381 -16.98963,15.66399 -3.27775,1.96267 -4.02242,5.36642 -1.36516,6.23989 3.20498,1.05352 7.2036,3.25203 7.74098,4.25613 0.34032,0.63589 0.61875,2.25708 0.61875,3.60267 0,2.00668 -0.431,2.96129 -2.3974,5.30994 -1.59696,1.90739 -2.84862,2.86344 -3.74883,2.86344 -0.74329,0 -3.55215,1.00728 -6.24191,2.2384 -2.68976,1.23112 -6.73548,2.81084 -8.99048,3.51049 -12.21735,3.7906 -17.7767,5.37971 -18.82044,5.37971 -0.64055,0 -2.86195,0.6742 -4.93643,1.49822 -2.07447,0.82403 -5.74857,2.16678 -8.16465,2.98391 -2.41608,0.81713 -4.78823,1.81756 -5.27144,2.22319 -0.48322,0.40563 -1.66929,1.13535 -2.63572,1.62159 -4.621301,2.32513 -7.924551,4.45963 -11.30836,7.30727 l -3.694051,3.10872 -6.555976,-0.0733 c -3.605783,-0.0403 -7.742045,-0.28435 -9.191692,-0.5423 z m 40.794664,-33.96102 c 1.88479,-1.78245 4.74474,-4.60236 6.35546,-6.26645 1.61072,-1.66409 3.52162,-3.60801 4.24644,-4.31982 0.72482,-0.71182 1.31786,-1.50377 1.31786,-1.7599 0,-0.80033 -3.50063,1.47823 -3.8281,2.49171 -0.17093,0.52904 -2.94426,3.39192 -6.16296,6.36197 -5.46397,5.04186 -8.43372,8.49037 -6.22679,7.23063 0.47916,-0.27352 2.4133,-1.95567 4.29809,-3.73814 z m 14.84834,-14.66777 c 0,-0.27757 -0.39536,-0.35296 -0.87857,-0.16754 -0.48322,0.18544 -0.87858,0.56425 -0.87858,0.84181 0,0.27757 0.39536,0.35296 0.87858,0.16754 0.48321,-0.18544 0.87857,-0.56425 0.87857,-0.84181 z m 6.11123,-5.50711 c 3.33429,-3.28143 3.70956,-3.82007 2.66142,-3.82007 -0.76924,0 -5.74303,4.57394 -6.48851,5.9669 -1.07063,2.00049 0.51907,1.10873 3.82709,-2.14683 z m 10.15311,-11.1796 c -0.5545,-0.5545 -6.30717,5.02332 -6.30717,6.11546 0,0.58007 1.27568,-0.3372 3.34028,-2.4018 1.83715,-1.83715 3.17225,-3.5083 2.96689,-3.71366 z m 5.04673,-4.68278 c 0.17801,-0.46389 0.15124,-0.84343 -0.0595,-0.84343 -0.57827,0 -3.09438,2.47529 -3.09438,3.04418 0,0.72658 2.7731,-1.20846 3.15388,-2.20075 z m 4.4418,-7.79731 c 0.015,-0.64827 -0.15143,-0.66273 -0.85995,-0.0747 -0.48321,0.40103 -0.87857,1.2744 -0.87857,1.94081 0,1.19114 0.0146,1.19241 0.85995,0.0747 0.47296,-0.62532 0.86832,-1.49869 0.87857,-1.94081 z m 6.01815,-5.34097 c 7.58492,-7.30712 8.51732,-8.39066 9.29759,-10.80475 0.42292,-1.30847 1.23207,-3.17903 1.79812,-4.15679 0.75881,-1.31071 1.00723,-2.92639 0.94561,-6.15001 -0.046,-2.40475 0.25125,-5.37833 0.66048,-6.60795 0.74673,-2.24375 0.59252,-3.15253 -0.42796,-2.52185 -0.73763,0.45588 -1.53791,5.65234 -1.5896,10.32183 -0.0765,6.90593 -1.67663,9.66012 -10.47678,18.03243 -4.4159,4.2012 -5.03555,4.86852 -5.03555,5.42282 0,0.99695 0.51316,0.62115 4.82809,-3.53573 z m -11.27096,2.04482 c 0.40673,-0.49009 0.47016,-0.87857 0.14343,-0.87857 -0.32214,0 -0.91383,0.39535 -1.31487,0.87857 -0.40673,0.49009 -0.47016,0.87857 -0.14343,0.87857 0.32214,0 0.91383,-0.39535 1.31487,-0.87857 z m 24.40225,-35.58223 c -0.16248,-0.40268 -0.29543,-0.0732 -0.29543,0.73214 0,0.80536 0.13295,1.13482 0.29543,0.73214 0.16249,-0.40267 0.16249,-1.06161 0,-1.46428 z m -37.58086,-3.67889 c -1.50266,-1.23171 -2.36521,-1.44073 -5.95568,-1.44322 -2.3092,-0.002 -4.61545,-0.16289 -5.12502,-0.35843 -0.50956,-0.19554 -0.92648,-0.1167 -0.92648,0.17519 0,0.97685 3.87459,1.94558 6.49081,1.62285 1.70778,-0.21066 3.08574,-0.0318 4.05208,0.526 2.42048,1.39713 3.38588,1.05273 1.46429,-0.52239 z m 41.7199,-3.78899 c 2.30779,-4.47706 5.59939,-9.39691 7.41589,-11.08427 1.47665,-1.37168 2.0395,-2.97291 1.04501,-2.97291 -0.80569,0 -2.82502,2.48934 -4.13189,5.0936 -0.67837,1.35184 -1.58594,2.6697 -2.01681,2.92858 -0.95459,0.57356 -5.082,8.28978 -5.082,9.50084 0,1.29999 0.88216,0.19615 2.7698,-3.46584 z m -59.58423,0 c 0,-0.32214 -0.0996,-0.58572 -0.22133,-0.58572 -0.12173,0 -1.17602,-0.39889 -2.34287,-0.88643 -1.3304,-0.55588 -2.12153,-0.65454 -2.12153,-0.26459 0,0.34203 0.85661,0.99417 1.90358,1.44923 2.30368,1.00127 2.78215,1.05072 2.78215,0.28751 z m -8.58017,-3.82343 c -0.34371,-0.89568 -2.54843,-2.38628 -2.54843,-1.72297 0,0.19358 0.27284,0.86179 0.60632,1.48489 0.72385,1.35252 2.45101,1.56425 1.94211,0.23808 z m -6.657196,-8.50364 c -1.104578,-0.84869 -2.373526,-1.10935 -5.262692,-1.08103 -3.08438,0.0302 -3.486737,0.13325 -2.119395,0.54265 0.928265,0.27792 2.377912,0.37725 3.221437,0.22072 0.927299,-0.17207 2.228414,0.15555 3.290827,0.82863 2.188589,1.38656 2.840799,1.00342 0.869823,-0.51097 z M 80.161604,110.83 c -0.13219,-0.40268 -1.14255,-0.81683 -2.245242,-0.92033 -2.944372,-0.27637 -1.150973,1.14626 1.99749,1.58453 0.268457,0.0374 0.379942,-0.26152 0.247752,-0.6642 z m -6.300147,-1.54243 c 0,-0.2846 -0.593037,-0.65363 -1.31786,-0.82009 -0.724824,-0.16645 -2.763787,-0.85611 -4.53103,-1.53256 -3.697469,-1.41531 -3.522563,-1.37835 -3.522563,-0.74434 0,0.26708 1.251967,1.04702 2.78215,1.7332 3.843589,1.72358 6.589303,2.29186 6.589303,1.36379 z M 192.76177,78.150775 c 0,-0.315785 -0.52253,-0.243746 -1.17143,0.1615 -0.64429,0.402364 -1.17143,0.941015 -1.17143,1.197003 0,0.255987 0.52714,0.183312 1.17143,-0.1615 0.64429,-0.344812 1.17143,-0.883463 1.17143,-1.197003 z m -75.55734,-7.003018 c 0,-0.322144 -0.27913,-0.585716 -0.62029,-0.585716 -0.34115,0 -0.45738,0.263572 -0.25828,0.585716 0.19909,0.322143 0.47822,0.585715 0.62028,0.585715 0.14206,0 0.25829,-0.263572 0.25829,-0.585715 z"
         id="path2520"
         inkscape:connector-curvature="0" />
      <path
         style="fill:#c10530;stroke-width:0.58571583"
         d="m 69.761446,248.00403 c -1.449646,-0.25794 -4.295028,-0.48852 -6.323069,-0.5124 -3.100837,-0.0365 -3.916022,-0.27209 -5.125013,-1.48109 -2.823045,-2.82304 -1.437415,-5.24014 4.835445,-8.43498 2.071189,-1.05489 3.524561,-1.26217 9.078596,-1.29484 l 6.612637,-0.0389 4.392869,-2.5735 c 2.416078,-1.41542 5.781894,-3.23075 7.479597,-4.03407 1.869406,-0.88457 3.480101,-2.146 4.084202,-3.19858 0.548611,-0.95591 1.795307,-2.1245 2.77043,-2.59689 3.84981,-1.86498 10.4306,-7.29839 20.18307,-16.66411 16.82559,-16.15831 28.56182,-28.39369 31.36114,-32.69495 2.68374,-4.12365 4.23421,-5.8507 12.39881,-13.81098 3.98016,-3.88054 4.82041,-5.06695 6.22235,-8.78573 1.22206,-3.24167 1.61832,-5.32311 1.61072,-8.46075 -0.0125,-5.17934 2.20847,-14.41394 4.38086,-18.21487 3.40261,-5.95336 6.5206,-10.55849 9.43705,-13.93812 2.95152,-3.42028 5.30037,-7.60732 8.1369,-14.504802 0.76364,-1.856912 1.99842,-4.178701 2.74395,-5.159541 2.59856,-3.418735 6.01701,-6.985727 6.69481,-6.985727 0.96532,0 1.49783,10.927026 0.95588,19.61456 l -0.43803,7.02167 -2.69605,1.27822 c -1.48282,0.70301 -3.479,2.28756 -4.43595,3.52121 -2.58521,3.33273 -5.65864,9.8322 -7.154,15.12875 -0.72759,2.57715 -1.55127,5.47644 -1.83038,6.44287 -0.2791,0.96643 -0.80837,3.47037 -1.17614,5.5643 -0.36777,2.09393 -1.42714,5.65216 -2.35415,7.90716 -1.75705,4.27413 -6.41768,20.21678 -6.41768,21.95301 0,1.79127 -4.09509,9.1348 -7.02887,12.60455 -2.76356,3.26843 -8.38584,7.79589 -13.43717,10.82055 -2.53857,1.52005 -3.56455,3.61536 -2.55443,5.21673 0.31937,0.50631 2.13729,1.51819 4.03983,2.24863 4.34648,1.66875 5.50917,3.02871 5.50917,6.44386 0,2.22844 -0.37065,3.07868 -2.3974,5.49941 -1.59696,1.90739 -2.84862,2.86344 -3.74883,2.86344 -0.74329,0 -3.55215,1.00728 -6.24191,2.2384 -2.68976,1.23112 -6.86726,2.84766 -9.28334,3.59231 -2.41608,0.74465 -5.9743,1.83907 -7.90717,2.43205 -1.93286,0.59297 -5.76046,1.59577 -8.50577,2.22842 -2.74531,0.63266 -6.26827,1.69758 -7.8288,2.3665 -1.56053,0.66892 -4.84937,1.89109 -7.30856,2.71592 -2.45917,0.82484 -4.86659,1.83678 -5.3498,2.24876 -0.48322,0.41199 -1.66929,1.14691 -2.63572,1.63315 -4.621306,2.32513 -7.924556,4.45963 -11.308365,7.30727 l -3.694051,3.10872 -6.555976,-0.0733 c -3.605783,-0.0403 -7.742045,-0.28435 -9.191692,-0.5423 z M 105.76095,184.7431 c -1.75321,-1.78672 -4.63645,-3.82037 -7.266071,-5.12502 -3.976155,-1.97271 -4.851736,-2.17743 -9.957169,-2.32805 -7.364955,-0.21728 -7.730418,-0.32202 -10.53909,-3.02059 -2.071177,-1.99 -2.634505,-3.11157 -4.072612,-8.1085 -0.917928,-3.18949 -2.034269,-6.56126 -2.480758,-7.49283 -1.048568,-2.18776 -4.836512,-4.25594 -9.051285,-4.94192 -1.834384,-0.29855 -3.4493,-0.65688 -3.588703,-0.79628 -0.139402,-0.1394 -0.03754,-9.17471 0.226349,-20.07846 l 0.479808,-19.82501 2.928579,0.1572 c 3.026899,0.16249 10.255119,3.40744 14.199728,6.37466 1.044833,0.78595 3.037462,1.77141 4.428069,2.18993 1.3906,0.4185 4.489324,1.9203 6.886038,3.33733 4.865307,2.87653 5.536526,3.21339 11.471093,5.75699 5.914954,2.53519 10.430794,3.42267 19.829514,3.89703 11.73011,0.59202 13.12546,0.51884 14.87331,-0.78008 2.40316,-1.7859 2.28509,-3.74549 -0.34686,-5.75674 -1.98098,-1.5138 -2.85004,-1.74348 -7.88322,-2.08344 -4.61071,-0.31142 -6.56039,-0.76292 -10.54289,-2.44151 -2.68735,-1.13268 -5.54501,-2.24215 -6.35037,-2.46548 -2.07965,-0.5767 -5.72415,-4.25098 -6.47591,-6.52884 -0.35036,-1.06161 -1.43226,-2.49646 -2.40422,-3.18855 -1.644788,-1.1712 -2.280816,-1.23822 -9.182851,-0.96775 -8.737691,0.34241 -13.043523,-0.30706 -21.839879,-3.29423 -3.423308,-1.16253 -6.75158,-2.11369 -7.39616,-2.11369 -0.644579,0 -1.433562,-0.32946 -1.753296,-0.73214 -0.369502,-0.46536 -0.517311,-9.269265 -0.405635,-24.160778 0.09663,-12.885748 0.183393,-24.631348 0.192797,-26.101333 0.02051,-3.206277 1.565991,-5.468245 4.32062,-6.323675 1.04193,-0.323564 5.584427,-0.672109 10.094439,-0.774546 l 8.200022,-0.186247 0.04018,3.278304 c 0.06304,5.139756 1.323905,6.757865 7.873456,10.10424 4.699913,2.401336 6.281082,2.908375 10.243527,3.284832 6.43532,0.611395 8.78685,1.997079 17.32626,10.209848 8.45017,8.126922 8.69449,8.265724 14.54969,8.265724 h 5.02418 l 4.10001,-3.288875 c 4.83895,-3.881622 5.30541,-4.401265 8.13441,-9.061876 3.52487,-5.807025 9.33732,-9.008855 16.42356,-9.04704 8.23268,-0.04436 17.30481,-2.490139 22.22063,-5.990517 1.49581,-1.065107 2.60431,-1.298702 6.08318,-1.281911 6.10439,0.02946 6.07576,-0.01959 6.26341,10.733461 0.13794,7.904937 0.0505,8.858163 -0.81217,8.858163 -1.99431,0 -9.67205,5.433903 -14.32157,10.136064 -6.10405,6.173152 -8.71777,10.710159 -10.01966,17.392582 -0.56606,2.90552 -3.88718,11.2193 -6.57933,16.47007 -1.70899,3.33324 -2.48282,5.77952 -3.05711,9.66431 -0.95611,6.46768 -3.10803,13.20291 -5.0187,15.70794 -0.79878,1.04724 -1.45232,2.0945 -1.45232,2.32725 0,1.09234 -5.58379,11.93512 -6.81345,13.23058 -5.96919,6.28859 -10.9145,10.74586 -13.39375,12.07196 -1.61071,0.86154 -4.24644,2.25968 -5.85715,3.10697 -1.61072,0.84729 -4.88277,2.85241 -7.27122,4.45583 -2.38846,1.60341 -4.76061,3.17887 -5.27144,3.50101 -0.51085,0.32214 -2.13794,1.43333 -3.61578,2.46931 -2.0762,1.45543 -7.5881,4.26642 -8.36578,4.26642 -0.0659,0 -1.42784,-1.33295 -3.02645,-2.9621 z"
         id="path2518"
         inkscape:connector-curvature="0" />
      <path
         style="fill:#bc042f;stroke-width:0.58571583"
         d="m 69.761446,248.00403 c -1.449646,-0.25794 -4.295028,-0.48852 -6.323069,-0.5124 -3.100837,-0.0365 -3.916022,-0.27209 -5.125013,-1.48109 -2.823045,-2.82304 -1.437415,-5.24014 4.835445,-8.43498 2.071189,-1.05489 3.524561,-1.26217 9.078596,-1.29484 l 6.612637,-0.0389 4.392869,-2.5735 c 2.416078,-1.41542 5.781894,-3.23075 7.479597,-4.03407 1.869406,-0.88457 3.480101,-2.146 4.084202,-3.19858 0.548611,-0.95591 1.795307,-2.1245 2.77043,-2.59689 3.84981,-1.86498 10.4306,-7.29839 20.18307,-16.66411 16.82559,-16.15831 28.56182,-28.39369 31.36114,-32.69495 2.68374,-4.12365 4.23421,-5.8507 12.39881,-13.81098 3.98016,-3.88054 4.82041,-5.06695 6.22235,-8.78573 1.22206,-3.24167 1.61832,-5.32311 1.61072,-8.46075 -0.0125,-5.17934 2.20847,-14.41394 4.38086,-18.21487 3.40261,-5.95336 6.5206,-10.55849 9.43705,-13.93812 2.95152,-3.42028 5.30037,-7.60732 8.1369,-14.504802 0.76364,-1.856912 1.99842,-4.178701 2.74395,-5.159541 2.59856,-3.418735 6.01701,-6.985727 6.69481,-6.985727 0.96532,0 1.49783,10.927026 0.95588,19.61456 l -0.43803,7.02167 -2.69605,1.27822 c -1.48282,0.70301 -3.479,2.28756 -4.43595,3.52121 -2.58521,3.33273 -5.65864,9.8322 -7.154,15.12875 -0.72759,2.57715 -1.55127,5.47644 -1.83038,6.44287 -0.2791,0.96643 -0.80837,3.47037 -1.17614,5.5643 -0.36777,2.09393 -1.42714,5.65216 -2.35415,7.90716 -1.75705,4.27413 -6.41768,20.21678 -6.41768,21.95301 0,1.79127 -4.09509,9.1348 -7.02887,12.60455 -2.76356,3.26843 -8.38584,7.79589 -13.43717,10.82055 -2.53857,1.52005 -3.56455,3.61536 -2.55443,5.21673 0.31937,0.50631 2.13729,1.51819 4.03983,2.24863 4.34648,1.66875 5.50917,3.02871 5.50917,6.44386 0,2.22844 -0.37065,3.07868 -2.3974,5.49941 -1.59696,1.90739 -2.84862,2.86344 -3.74883,2.86344 -0.74329,0 -3.55215,1.00728 -6.24191,2.2384 -2.68976,1.23112 -6.86726,2.84766 -9.28334,3.59231 -2.41608,0.74465 -5.9743,1.83907 -7.90717,2.43205 -1.93286,0.59297 -5.76046,1.59577 -8.50577,2.22842 -2.74531,0.63266 -6.26827,1.69758 -7.8288,2.3665 -1.56053,0.66892 -4.84937,1.89109 -7.30856,2.71592 -2.45917,0.82484 -4.86659,1.83678 -5.3498,2.24876 -0.48322,0.41199 -1.66929,1.14691 -2.63572,1.63315 -4.621306,2.32513 -7.924556,4.45963 -11.308365,7.30727 l -3.694051,3.10872 -6.555976,-0.0733 c -3.605783,-0.0403 -7.742045,-0.28435 -9.191692,-0.5423 z m 37.582044,-62.23289 c -0.77162,-0.92974 -0.21056,-3.39442 0.97271,-4.27298 0.66711,-0.49531 0.69927,-0.74558 0.14019,-1.09111 -0.39901,-0.24661 -1.01881,-0.15505 -1.37731,0.20345 -0.81013,0.81013 -1.58897,0.84254 -1.58897,0.0661 0,-0.32214 0.39536,-0.58571 0.87858,-0.58571 0.48321,0 0.87857,-0.42529 0.87857,-0.94508 0,-0.7924 -0.43906,-0.87924 -2.7178,-0.53752 -1.96636,0.29487 -2.84852,0.19604 -3.1906,-0.35747 -0.26005,-0.42076 -1.05661,-0.77192 -1.770129,-0.78034 -1.890627,-0.0223 -2.043803,-1.3752 -0.233625,-2.06342 1.011014,-0.38439 1.486064,-0.94645 1.358744,-1.6076 -0.28896,-1.50043 -2.206017,-1.62109 -3.200387,-0.20143 -0.473106,0.67546 -1.584226,1.60252 -2.469149,2.06012 -1.401249,0.72462 -1.962851,0.71552 -4.350381,-0.0705 -3.193048,-1.05119 -3.140732,-1.65515 0.181976,-2.10081 1.309063,-0.17559 2.765135,-0.63879 3.235717,-1.02933 1.342191,-1.11392 1.025278,-2.3238 -0.608688,-2.3238 -1.238209,0 -1.46429,-0.27272 -1.46429,-1.76638 0,-2.45382 -1.317579,-6.43364 -2.129949,-6.43364 -0.370313,0 -0.82501,-0.39536 -1.010442,-0.87858 -0.510001,-1.32905 -2.131051,-1.06915 -2.131051,0.34167 0,1.5978 -1.404605,1.14364 -1.651455,-0.53398 -0.124295,-0.84472 0.121629,-1.27198 0.732144,-1.27198 0.50562,0 0.919311,-0.34941 0.919311,-0.77647 0,-0.94251 2.439828,-3.32354 3.405615,-3.32354 0.403119,0 0.694396,-0.85992 0.694396,-2.05 0,-1.95239 0.09762,-2.05001 2.050005,-2.05001 1.952384,0 2.050006,-0.0976 2.050006,-2.05 0,-1.95239 0.09762,-2.05001 2.050005,-2.05001 1.431747,0 2.050005,-0.26497 2.050005,-0.87857 0,-0.61361 -0.618258,-0.87858 -2.050005,-0.87858 -1.928721,0 -2.050005,-0.11435 -2.050005,-1.93286 0,-1.06307 0.316286,-2.24915 0.702859,-2.63572 0.546666,-0.54667 0.546666,-0.85905 0,-1.40572 -0.386573,-0.38657 -0.702859,-1.70443 -0.702859,-2.92858 v -2.22572 h 3.104294 c 1.707361,0 3.397618,-0.29332 3.756118,-0.65182 0.81488,-0.81489 1.97762,-0.16598 1.57634,0.87973 -0.17945,0.46765 0.40851,1.06867 1.47935,1.51223 1.95926,0.81155 3.65059,0.46538 3.41437,-0.69883 -0.0915,-0.45099 0.31371,-0.67783 1.01957,-0.57077 0.64428,0.0977 3.725,0.27248 6.84603,0.38835 6.38799,0.23716 8.72629,0.72119 7.43497,1.53904 -0.5305,0.33599 -0.56909,0.5158 -0.11196,0.52168 0.38366,0.005 0.87869,-0.28407 1.10005,-0.64224 0.25954,-0.41996 1.40041,-0.51884 3.21253,-0.27846 1.69713,0.22513 2.95696,0.13509 3.18096,-0.22735 0.20399,-0.33007 0.96496,-0.60013 1.69104,-0.60013 0.72607,0 2.06871,-0.78134 2.98363,-1.73631 0.91493,-0.95498 1.87524,-1.60547 2.13401,-1.44554 0.7018,0.43374 -0.068,2.16984 -1.45807,3.28823 -1.76413,1.41935 -0.75032,1.96606 1.97683,1.06602 2.60218,-0.8588 2.67284,-0.98382 1.46118,-2.58496 -0.4684,-0.61896 -0.70078,-1.70362 -0.51963,-2.42539 0.38414,-1.53053 -0.65275,-2.39991 -1.76317,-1.47834 -0.58948,0.48923 -1.31275,0.14752 -3.0438,-1.43806 -2.5787,-2.362 -2.86473,-2.44766 -9.40244,-2.81566 -3.74633,-0.21088 -5.83288,-0.71361 -9.66431,-2.32852 -2.68753,-1.13277 -5.54535,-2.2423 -6.35071,-2.46563 -2.07965,-0.5767 -5.72415,-4.25098 -6.47591,-6.52884 -0.35036,-1.06161 -1.43226,-2.49646 -2.40422,-3.18855 -1.644788,-1.1712 -2.280816,-1.23822 -9.182851,-0.96775 -8.737691,0.34241 -13.043523,-0.30706 -21.839879,-3.29423 -3.423308,-1.16253 -6.75158,-2.11369 -7.39616,-2.11369 -0.644579,0 -1.433562,-0.32946 -1.753296,-0.73214 -0.912983,-1.14983 -0.523428,-46.395487 0.424864,-49.346558 0.703231,-2.188446 0.7914,-2.257968 1.337725,-1.054803 0.525637,1.157603 3.399434,2.379469 4.752205,2.020519 0.281927,-0.07481 0.940857,0.239165 1.464289,0.697717 0.523433,0.458552 1.53125,1.010175 2.239596,1.225828 0.708344,0.215654 1.450929,0.905759 1.650188,1.533568 0.408612,1.287422 2.933129,1.590481 3.409735,0.409326 0.228607,-0.566546 0.305886,-0.559967 0.341668,0.02909 0.07957,1.309934 -1.745549,4.303247 -2.477411,4.063111 -0.383782,-0.125926 -0.781185,-0.933452 -0.883119,-1.794504 -0.112557,-0.950795 -0.545145,-1.565549 -1.101639,-1.565549 -0.745812,0 -0.835248,0.408682 -0.480663,2.196434 0.48689,2.454818 0.468886,6.353905 -0.04463,9.664311 -0.217309,1.40091 -0.109925,2.196434 0.296488,2.196434 0.350459,0 0.638822,-0.461251 0.640807,-1.025002 0.002,-0.563752 0.397343,-1.779954 0.878574,-2.702673 0.481232,-0.922718 0.874966,-2.174686 0.874966,-2.78215 0,-1.365525 0.92634,-1.438422 1.658292,-0.130497 0.490293,0.876106 0.582206,0.856973 0.914628,-0.190396 0.285933,-0.900895 0.758149,-1.107346 2.086801,-0.912342 1.341448,0.196883 1.756498,0.591032 1.896624,1.801115 0.138903,1.19947 0.542906,1.590905 1.790106,1.73441 0.885895,0.101934 1.610719,-0.08898 1.610719,-0.424245 0,-0.335269 0.790716,-1.018475 1.757147,-1.518236 1.78313,-0.92209 2.546593,-2.901894 0.871118,-2.258953 -1.891716,0.725917 -3.167182,-2.187527 -1.680518,-3.838662 0.385143,-0.427756 2.566548,1.860681 2.566548,2.692482 0,0.443398 0.374764,0.949987 0.832806,1.125755 0.952895,0.36566 3.431158,-0.788638 3.042688,-1.417192 -0.141526,-0.228998 0.09676,-0.900596 0.529528,-1.492442 0.7618,-1.041819 0.890769,-1.038716 4.050442,0.09743 1.794979,0.645434 3.78544,1.03705 4.423256,0.870259 1.666868,-0.435895 4.562528,0.356385 3.562168,0.974641 -1.59449,0.985451 0.0282,1.905041 2.66413,1.509762 2.46364,-0.369445 2.56647,-0.324758 2.56647,1.115312 0,0.825098 0.2316,1.500178 0.51466,1.500178 0.28306,0 0.84218,0.790717 1.24249,1.757148 0.52022,1.255926 1.12525,1.757147 2.12106,1.757147 0.76628,0 1.39323,-0.167455 1.39323,-0.372122 0,-0.516457 -2.69096,-2.961547 -3.6256,-3.294327 -0.422,-0.150253 -0.55893,-0.49564 -0.3043,-0.767528 0.64642,-0.690234 3.4597,1.120203 4.51562,2.905954 0.48322,0.817202 1.93286,2.308879 3.22144,3.314837 1.28857,1.005957 2.45541,1.940678 2.59296,2.077157 0.35594,0.353156 -1.86255,1.95225 -2.73939,1.97456 -0.40268,0.01024 -0.73215,-0.640303 -0.73215,-1.445662 0,-1.511278 -0.80138,-1.951175 -1.4988,-0.822724 -0.67625,1.094188 0.99645,3.383679 2.75417,3.769737 1.0706,0.235144 1.67321,0.740273 1.67321,1.402544 0,1.504742 3.91445,5.349193 5.01614,4.926441 0.76652,-0.294146 0.84307,0.09133 0.51268,2.581941 -0.2537,1.912444 -0.16255,3.067282 0.26284,3.330187 0.35817,0.221365 0.65122,0.85542 0.65122,1.409015 0,1.633023 1.78535,3.816132 2.52003,3.081451 0.44594,-0.445941 0.23558,-1.044302 -0.7276,-2.069556 -0.74521,-0.793235 -1.20734,-1.82683 -1.02697,-2.296879 0.28411,-0.740374 0.60594,-0.728636 2.40726,0.08783 1.97729,0.896221 2.037,1.007021 1.21704,2.258426 -0.47424,0.723787 -0.70524,1.725144 -0.51334,2.225234 0.41294,1.076118 0.53951,1.094873 2.02478,0.29998 0.94968,-0.508254 1.22832,-0.372919 1.68041,0.816143 0.53049,1.395304 0.65107,1.41906 5.70519,1.124164 2.83979,-0.165699 5.41364,-0.53296 5.71968,-0.816142 0.30603,-0.283182 1.42621,-0.514879 2.48929,-0.514879 2.82745,0 2.59729,1.631441 -0.26357,1.868216 -2.00961,0.166329 -2.19644,0.331249 -2.19644,1.938939 0,1.26941 -0.3718,1.91972 -1.33949,2.34286 -1.15846,0.50656 -1.32222,0.96589 -1.21177,3.39887 0.0702,1.54722 0.35092,2.95109 0.62371,3.11968 0.81014,0.5007 2.78543,-2.32191 2.43673,-3.48198 -0.27587,-0.91776 -0.0124,-1.03811 1.92358,-0.87857 1.62207,0.13367 2.29962,0.4822 2.44686,1.25864 0.16505,0.87026 -0.11156,1.03678 -1.45941,0.87858 -2.33793,-0.27442 -2.25033,1.4497 0.0941,1.85183 1.40536,0.24105 1.79528,0.634 1.94764,1.96278 0.16925,1.47611 0.0467,1.61577 -1.09835,1.25233 -0.87388,-0.27736 -1.15981,-0.20028 -0.88807,0.2394 0.22042,0.35666 1.29216,0.64847 2.38164,0.64847 1.08948,0 2.15866,0.28765 2.37595,0.63923 0.26651,0.43124 -0.34166,0.57418 -1.86902,0.43929 l -2.26408,-0.19995 -0.1009,3.07501 c -0.076,2.31547 0.10486,3.07501 0.73215,3.07501 0.45817,0 0.83304,0.52714 0.83304,1.17143 0,1.27154 -1.1404,1.55388 -2.15961,0.53468 -1.28532,-1.28532 -1.50135,0.73634 -0.25834,2.4176 0.67886,0.91822 1.07707,2.07923 0.88489,2.58004 -0.19218,0.5008 -0.18094,0.91055 0.025,0.91055 0.20591,0 0.61276,-0.59304 0.90411,-1.31786 0.39171,-0.97453 0.53939,-0.21156 0.56684,2.92858 0.0272,3.1173 0.24359,4.24644 0.8136,4.24644 0.94251,0 3.32354,2.43983 3.32354,3.40561 0,0.38192 0.39536,0.6944 0.87857,0.6944 1.40075,0 1.01553,1.65613 -0.4333,1.86284 -1.83973,0.26248 -2.13803,2.23121 -0.34179,2.2558 0.74844,0.0103 1.84917,0.38859 2.44606,0.84077 1.04712,0.79326 1.03139,0.93977 -0.44772,4.17057 -0.84313,1.84164 -1.69546,3.18594 -1.89407,2.98733 -0.19861,-0.19861 0.0688,-1.26697 0.59414,-2.37414 0.52539,-1.10718 0.95525,-2.26529 0.95525,-2.57359 0,-0.74465 -18.85101,-1.37211 -19.60831,-0.65267 -0.37213,0.35352 -0.34916,0.89708 0.0656,1.5528 0.45708,0.72259 0.45932,1.40239 0.008,2.39555 -0.52991,1.16585 -0.42377,1.55388 0.66653,2.43675 0.95601,0.77414 1.2968,1.67956 1.2968,3.44549 v 2.39541 h -2.34287 c -1.69207,0 -2.34286,0.24405 -2.34286,0.87857 0,0.6196 0.62672,0.87857 2.12618,0.87857 h 2.12617 l -0.28872,2.56159 c -0.16502,1.464 0.0404,3.34434 0.47939,4.3884 0.67791,1.61228 0.64951,1.89029 -0.24186,2.36733 -0.63254,0.33852 -1.40641,0.31867 -2.07078,-0.0531 -0.8308,-0.46493 -1.24748,-0.32716 -1.92167,0.63538 -0.91583,1.30754 -4.50192,1.75228 -5.1873,0.64332 -0.19909,-0.32214 -1.26894,-0.58571 -2.37743,-0.58571 -1.58699,0 -2.01544,0.2357 -2.01544,1.10876 0,0.60983 0.43485,1.27564 0.96632,1.47958 0.84727,0.32513 0.79504,0.55312 -0.42394,1.85066 -1.1011,1.17207 -1.22556,1.58164 -0.59842,1.96924 0.91083,0.56292 0.36598,1.79178 -0.79443,1.79178 -0.42974,0 -0.93305,-0.39536 -1.11849,-0.87857 -0.40007,-1.04259 -2.28789,-1.14155 -4.07313,-0.21353 -1.85456,0.96407 -1.85846,0.97642 -0.71047,2.24494 0.9833,1.08653 0.98841,1.25371 0.0805,2.63931 -0.5331,0.81361 -1.46215,1.47929 -2.06454,1.47929 -0.60239,0 -1.24698,0.39536 -1.43241,0.87858 -0.39478,1.02879 -2.51709,1.18474 -2.84238,0.20886 -0.31686,-0.95057 -2.80296,0.44096 -2.80296,1.56889 0,1.06304 -0.8188,1.11004 -1.66092,0.0953 z m 8.36573,-4.55884 c -0.18858,-0.30514 -0.59254,-0.4005 -0.89768,-0.21191 -0.30514,0.18858 -0.4005,0.59254 -0.21191,0.89768 0.18858,0.30514 0.59254,0.4005 0.89768,0.21191 0.30514,-0.18858 0.4005,-0.59254 0.21191,-0.89768 z m -4.36195,-6.09999 c 0,-0.48321 -0.39536,-0.87857 -0.87857,-0.87857 -0.48322,0 -0.87858,0.39536 -0.87858,0.87857 0,0.48322 0.39536,0.87858 0.87858,0.87858 0.48321,0 0.87857,-0.39536 0.87857,-0.87858 z m 7.02859,-2.03162 c 0,-0.31203 -0.39536,-0.41562 -0.87857,-0.2302 -0.48322,0.18544 -0.87858,0.44073 -0.87858,0.56734 0,0.1266 0.39536,0.23019 0.87858,0.23019 0.48321,0 0.87857,-0.2553 0.87857,-0.56733 z m -11.1286,-4.11839 c 0,-2.21271 -0.21476,-2.92858 -0.87857,-2.92858 -0.66381,0 -0.87858,0.71587 -0.87858,2.92858 0,2.2127 0.21477,2.92857 0.87858,2.92857 0.66381,0 0.87857,-0.71587 0.87857,-2.92857 z m 26.94293,-2.67029 c 0,-0.86252 -0.69783,-1.12238 -1.32631,-0.49389 -0.52799,0.52799 0.19902,2.03459 0.80196,1.66196 0.28839,-0.17824 0.52435,-0.70387 0.52435,-1.16807 z m -1.27207,-11.60467 c 0.10572,-0.92514 -0.092,-1.96625 -0.43929,-2.31358 -0.34733,-0.34733 -0.6315,-2.02844 -0.6315,-3.7358 0,-2.3689 -0.20814,-3.1043 -0.87858,-3.1043 -0.65577,0 -0.87857,0.69499 -0.87857,2.74057 0,1.50731 -0.30452,3.58268 -0.6767,4.61194 -0.93286,2.57978 -0.32116,3.90119 1.69837,3.66889 1.28782,-0.14813 1.6529,-0.52563 1.80627,-1.86772 z m -23.328,-14.71798 c 0.43909,-0.52906 1.72062,-0.87857 3.22144,-0.87857 1.4597,0 2.78357,-0.35097 3.19534,-0.84713 0.38668,-0.46592 1.67092,-0.95594 2.85386,-1.08893 1.18296,-0.133 0.17403,-0.11925 -2.24205,0.0306 -2.41607,0.14981 -4.5547,0.53149 -4.75249,0.84818 -0.21868,0.35014 -1.67892,0.41098 -3.72585,0.15523 -3.47542,-0.43422 -4.66877,0.12518 -3.99769,1.87399 0.41565,1.08317 4.52953,1.0127 5.44744,-0.0933 z m 22.55006,-0.29285 c -0.19909,-0.32215 -1.79608,-0.58572 -3.54886,-0.58572 -1.75278,0 -3.18687,0.26357 -3.18687,0.58572 0,0.32603 1.57343,0.58571 3.54887,0.58571 2.21675,0 3.41298,-0.21985 3.18686,-0.58571 z m 15.75167,-7.95507 c 0.61938,-1.6141 0.39548,-2.0021 -1.15531,-2.0021 -1.37398,0 -1.47587,-0.15916 -1.12489,-1.75715 0.44964,-2.0472 -0.17278,-2.22932 -2.13155,-0.62369 -1.37277,1.12527 -1.3743,1.13999 -0.21132,2.04037 1.16215,0.89974 1.16099,0.90987 -0.14642,1.27773 -2.63919,0.74256 -1.42355,1.99132 1.93853,1.99132 1.71695,0 2.58437,-0.28388 2.83096,-0.92648 z m -10.18737,-22.76045 c 0,-0.14205 -0.26357,-0.42118 -0.58571,-0.62028 -0.32215,-0.1991 -0.58572,-0.0829 -0.58572,0.25829 0,0.34116 0.26357,0.62028 0.58572,0.62028 0.32214,0 0.58571,-0.11623 0.58571,-0.25829 z m -5.12501,-6.99993 c 1.49553,-1.13526 1.31157,-2.326652 -0.29286,-1.89668 -0.72482,0.19424 -1.81996,0.35677 -2.43364,0.36117 -1.07867,0.008 -1.08052,0.047 -0.0556,1.17943 1.23723,1.36713 1.41953,1.39046 2.78215,0.35608 z M 73.936168,78.96025 c 0.442125,-0.535284 0.803863,-1.52368 0.803863,-2.196434 0,-1.251097 0.57181,-1.363908 3.075008,-0.60666 1.065288,0.322263 1.317861,0.170424 1.317861,-0.792266 0,-0.655014 0.329465,-1.324619 0.732145,-1.488012 0.550971,-0.223562 0.514733,-0.450832 -0.146429,-0.918414 -1.404635,-0.993376 -3.443166,-0.737278 -4.23594,0.532156 -0.402364,0.644287 -1.063528,1.171431 -1.469253,1.171431 -0.405725,0 -0.737682,0.386085 -0.737682,0.857966 0,0.471882 -0.527144,1.140086 -1.171431,1.484898 -1.31363,0.703033 -1.553617,2.091028 -0.439287,2.54067 1.2084,0.4876 1.432685,0.429796 2.271145,-0.585335 z m 38.465392,-2.658194 c 0.38657,-0.386573 0.70286,-0.887933 0.70286,-1.114134 0,-0.40151 -3.19685,-1.697302 -4.18741,-1.697302 -0.99253,0 -0.46935,1.042379 0.67311,1.341142 0.64429,0.168485 1.17144,0.72637 1.17144,1.239744 0,1.109134 0.66757,1.202981 1.64,0.23055 z m -5.74002,-0.396855 c 0,-0.282699 -0.39535,-0.842116 -0.87857,-1.24315 -0.73402,-0.609183 -0.87857,-0.524614 -0.87857,0.513998 0,0.714545 0.37358,1.24315 0.87857,1.24315 0.48322,0 0.87857,-0.231299 0.87857,-0.513998 z m -3.95358,-1.631058 c -0.40268,-0.162485 -1.06161,-0.162485 -1.46429,0 -0.40268,0.162485 -0.0732,0.295427 0.73215,0.295427 0.80536,0 1.13482,-0.132942 0.73214,-0.295427 z m -4.295573,-1.634909 c 3.077293,-2.824124 3.619463,-3.248625 4.149143,-3.248625 0.32215,0 0.58572,-0.423932 0.58572,-0.94207 0,-0.712843 -0.35692,-0.852488 -1.46688,-0.573908 -0.88229,0.221442 -1.991041,0.02498 -2.782149,-0.492983 -1.166799,-0.763936 -1.540269,-0.752111 -3.308463,0.10475 -1.096249,0.531243 -1.75518,1.022176 -1.46429,1.090962 0.290896,0.06879 1.253725,0.284929 2.13962,0.480317 2.006774,0.442602 2.070933,1.358385 0.146429,2.09008 -1.579453,0.600506 -1.908877,1.480132 -0.732145,1.954954 1.252015,0.5052 1.773946,0.416689 2.733015,-0.463477 z m -5.515165,-0.905762 c -0.199096,-0.322143 -1.6643,-0.585715 -3.256006,-0.585715 -1.591706,0 -2.89401,0.263572 -2.89401,0.585715 0,0.322144 1.465203,0.585716 3.256006,0.585716 2.021516,0 3.118755,-0.222069 2.89401,-0.585716 z m -0.101346,-2.729614 c 0.212714,-0.212713 -0.150037,-0.762734 -0.806115,-1.222268 -0.936027,-0.655618 -1.375232,-0.684168 -2.039832,-0.132599 -0.465825,0.386605 -0.702525,0.936626 -0.525984,1.222268 0.373435,0.604229 2.804694,0.699837 3.371931,0.132599 z M 104.70916,182.629 c -0.21476,-0.21476 -0.39048,-0.66284 -0.39048,-0.99572 0,-0.36701 0.27281,-0.33243 0.6931,0.0879 0.3812,0.3812 0.55692,0.82928 0.39048,0.99571 -0.16645,0.16645 -0.47834,0.12691 -0.6931,-0.0879 z m -23.090394,-9.65007 c -1.045081,-0.6617 -1.90015,-1.49726 -1.90015,-1.8568 0,-0.35954 -0.429916,-0.2238 -0.955361,0.30165 -0.883342,0.88335 -1.045714,0.87119 -2.153811,-0.16116 -0.659147,-0.61408 -0.983866,-1.31698 -0.721599,-1.56199 0.262268,-0.24502 0.594516,-0.11601 0.73833,0.28667 0.409071,1.1454 1.591591,0.86543 3.092441,-0.73215 0.756598,-0.80536 1.725044,-1.46429 2.152101,-1.46429 1.228106,0 0.902705,-1.58751 -0.394954,-1.92685 -1.444809,-0.37783 -1.526375,-1.49325 -0.146429,-2.00239 0.563752,-0.20799 1.196079,-0.63349 1.405179,-0.94554 0.209095,-0.31205 0.833005,-0.39359 1.386472,-0.1812 0.890639,0.34177 0.958676,0.9743 0.591936,5.50322 -0.227896,2.81439 -0.589781,5.30311 -0.804182,5.53049 -0.214401,0.22739 -1.244892,-0.12796 -2.289973,-0.78966 z m 59.709834,-5.81039 c 0.14094,-0.42282 0.60219,-0.88407 1.025,-1.025 0.43929,-0.14643 0.65893,0.0732 0.51251,0.5125 -0.14095,0.42281 -0.6022,0.88406 -1.02501,1.025 -0.43928,0.14643 -0.65893,-0.0732 -0.5125,-0.5125 z m -54.127213,-2.04731 c -0.587215,-0.58722 0.247817,-2.60181 1.07842,-2.60181 0.880431,0 1.007807,0.56082 0.454738,2.0021 -0.364203,0.94911 -0.953322,1.17955 -1.533158,0.59971 z m 55.784663,-0.11252 c 0.006,-0.2416 0.66449,-1.05998 1.46429,-1.81862 0.79979,-0.75864 1.45417,-1.68453 1.45417,-2.05754 0,-0.37302 0.57598,-0.93839 1.27997,-1.25639 2.024,-0.91426 1.93612,-1.88178 -0.14319,-1.5766 -1.64302,0.24114 -1.80387,0.12997 -1.62649,-1.12413 0.16803,-1.18793 0.50888,-1.38281 2.32762,-1.33076 2.03275,0.0582 2.14431,-0.0399 2.42493,-2.13206 0.16178,-1.20618 0.84428,-2.74318 1.51666,-3.41557 0.68249,-0.68249 1.07134,-1.61647 0.88028,-2.11437 -0.21898,-0.57066 -0.004,-0.89186 0.599,-0.89186 1.07278,0 1.29437,2.05548 0.28859,2.67709 -0.39884,0.24649 -0.52784,1.33388 -0.33173,2.79603 0.30154,2.24813 0.12161,2.62391 -2.97838,6.22051 -4.51266,5.23558 -7.18947,7.48913 -7.15572,6.02427 z m -3.83093,-0.75423 c -0.19159,-0.30999 -0.0978,-0.56363 0.20845,-0.56363 0.30623,0 0.72217,-0.65893 0.9243,-1.46429 0.22845,-0.91023 0.78282,-1.46429 1.46512,-1.46429 1.18082,0 1.94353,1.22657 1.31518,2.11505 -0.68861,0.97367 -3.54181,1.97784 -3.91305,1.37716 z M 74.138458,163.6652 c -0.207817,-0.33626 -0.06981,-0.98254 0.306682,-1.43619 0.376492,-0.45364 0.512795,-1.3659 0.302896,-2.02723 -0.257299,-0.81068 -0.08224,-1.31731 0.537325,-1.55506 1.150152,-0.44135 1.161915,-1.38471 0.04399,-3.52822 -1.116297,-2.14041 -1.117553,-3.51203 -0.0036,-3.93949 1.545411,-0.59303 2.635721,0.26331 2.635721,2.07013 0,2.17038 0.946786,3.99884 2.070611,3.99884 0.56282,0 0.857968,0.60448 0.857968,1.75715 0,1.60529 -0.170835,1.75714 -1.976791,1.75714 -1.727861,0 -2.021047,0.22128 -2.32822,1.75715 -0.346313,1.73157 -1.694365,2.36288 -2.446578,1.14578 z m -1.977313,-5.38916 c -0.314826,-0.82806 -1.708374,-2.18634 -3.096773,-3.01841 -1.3884,-0.83207 -2.129005,-1.51895 -1.645789,-1.5264 0.483215,-0.007 1.468408,-0.17163 2.189317,-0.36485 0.94825,-0.25416 1.423261,-0.0495 1.717594,0.74014 0.223767,0.6003 0.936805,1.81809 1.584529,2.7062 0.891053,1.22174 1.012892,1.77952 0.500606,2.2918 -0.512286,0.51229 -0.816386,0.31065 -1.249484,-0.82848 z m -9.14463,-6.9271 c -0.491649,-2.23847 -0.329844,-2.39808 1.965653,-1.93897 2.091468,0.41828 2.352463,1.3452 0.779576,2.76865 -1.566276,1.41746 -2.300406,1.19558 -2.745229,-0.82968 z m 5.427071,-2.39762 c -2.151553,-1.16533 -2.196435,-1.25953 -2.196435,-4.61011 0,-3.0594 0.123656,-3.41116 1.171432,-3.33223 0.701543,0.0528 1.171432,0.50813 1.171432,1.13503 0,0.81007 0.473598,1.04679 2.094244,1.04679 h 2.094243 l -0.142367,2.78215 c -0.133548,2.60981 -0.786652,4.29705 -1.628546,4.20722 -0.202163,-0.0216 -1.355964,-0.57456 -2.564003,-1.22885 z m 14.203609,0.0966 c 0,-0.32215 -1.173675,-0.58572 -2.608164,-0.58572 -3.990409,0 -5.591858,-0.95686 -5.591858,-3.34111 v -1.98165 l 4.24644,0.17209 c 4.233074,0.17155 4.248203,0.17808 4.806853,2.07566 0.308221,1.04697 0.769472,1.90358 1.025002,1.90358 0.255525,0 0.46459,0.52715 0.46459,1.17143 0,0.78095 -0.390479,1.17143 -1.171431,1.17143 -0.644288,0 -1.171432,-0.26357 -1.171432,-0.58571 z m 76.143055,-7.24973 c 0,-0.93337 1.62786,-2.44626 2.11162,-1.9625 0.44823,0.44824 -0.84796,2.76935 -1.54651,2.76935 -0.31081,0 -0.56511,-0.36308 -0.56511,-0.80685 z m -84.343077,-2.34627 c 0,-1.4891 -0.291183,-2.05784 -1.171432,-2.28803 -1.919596,-0.50199 -1.334298,-1.41167 1.165465,-1.8114 1.881243,-0.30082 2.566465,-0.14412 3.514294,0.80371 0.647573,0.64758 1.572758,1.1774 2.055974,1.1774 0.613607,0 0.878573,0.61826 0.878573,2.05001 v 2.05 H 77.66861 74.447173 Z m 8.200022,-0.75434 c 0,-0.53838 0.431737,-1.45594 0.959408,-2.03902 1.331971,-1.47181 0.121273,-2.83925 -2.513798,-2.83925 -1.290444,0 -2.123941,-0.33166 -2.356493,-0.93769 -0.518933,-1.35232 0.840525,-1.97169 4.35017,-1.98192 2.321244,-0.007 3.075008,-0.2216 3.075008,-0.87639 0,-0.47707 0.674651,-1.03674 1.499222,-1.24369 0.950997,-0.23869 1.386084,-0.67113 1.189817,-1.18259 -0.380745,-0.99221 0.91924,-1.06376 1.879545,-0.10345 0.937426,0.93742 0.888999,1.64 -0.11305,1.64 -0.448752,0 -0.96762,0.39536 -1.153051,0.87857 -0.185426,0.48322 -0.872553,0.87858 -1.526956,0.87858 -1.250538,0 -1.600568,0.84844 -0.604095,1.46429 0.322143,0.19909 0.585715,1.00894 0.585715,1.79966 0,0.79072 0.30517,1.92632 0.678154,2.52356 1.241723,1.98832 0.230339,2.99823 -3.002637,2.99823 -2.363258,0 -2.946959,-0.19389 -2.946959,-0.97889 z m 74.385915,-3.36518 c 0,-0.51005 0.41732,-0.92738 0.92738,-0.92738 1.03433,0 0.8542,1.26091 -0.23185,1.62292 -0.38254,0.12752 -0.69553,-0.18547 -0.69553,-0.69554 z m 5.27144,-0.82976 c 0,-0.26845 0.19768,-0.6871 0.43929,-0.93033 0.2416,-0.24323 0.43928,-1.77755 0.43928,-3.4096 0,-2.01337 0.2625,-3.05713 0.81651,-3.2466 0.66972,-0.22905 0.7409,0.38898 0.39594,3.43804 -0.23131,2.04452 -0.5484,3.92414 -0.70464,4.17694 -0.37723,0.61036 -1.38638,0.58965 -1.38638,-0.0284 z m -2.14074,-1.00145 c -0.19077,-0.49711 -0.18886,-1.06181 0.004,-1.2549 0.50644,-0.50644 2.18524,1.02031 1.80264,1.63938 -0.49991,0.80886 -1.42444,0.61213 -1.80687,-0.38448 z m -69.310842,-1.13924 c -0.585844,-0.7059 -0.543796,-0.94056 0.221143,-1.2341 1.300811,-0.49916 2.701685,0.12761 2.701685,1.20879 0,1.14809 -1.976791,1.16521 -2.922828,0.0253 z m -15.820079,-2.31167 c 0,-0.46224 0.257048,-1.51653 0.571219,-2.34286 0.482574,-1.26927 0.937044,-1.50242 2.928579,-1.50242 1.966881,0 2.35736,0.19404 2.35736,1.17143 0,0.9762 -0.390479,1.17144 -2.342863,1.17144 -1.952386,0 -2.342863,0.19523 -2.342863,1.17143 0,0.64428 -0.263573,1.17143 -0.585716,1.17143 -0.322144,0 -0.585716,-0.3782 -0.585716,-0.84045 z m 7.862462,-1.70056 c -0.512572,-1.33574 0.198528,-2.14472 1.885226,-2.14472 1.72194,0 1.609711,0.97504 -0.25471,2.21297 -1.128376,0.74922 -1.319905,0.7412 -1.630516,-0.0683 z m 76.480619,-1.5111 c 0,-0.29579 -0.15492,-0.94152 -0.34427,-1.43495 -0.24307,-0.63343 0.29446,-1.16401 1.82869,-1.80505 2.6292,-1.09855 2.61559,-1.09783 2.61559,-0.13892 0,0.78426 -2.95335,3.91673 -3.69277,3.91673 -0.22398,0 -0.40724,-0.24201 -0.40724,-0.53781 z M 81.849667,124.155 c -0.227147,-0.59193 0.02776,-0.87858 0.781345,-0.87858 1.458362,0 2.028462,0.9482 0.843489,1.40292 -1.242608,0.47683 -1.240371,0.47755 -1.624834,-0.52434 z m -5.85125,-0.10829 c -0.208897,-0.2089 -0.379812,-0.89236 -0.379812,-1.51881 0,-0.99745 0.272954,-1.08884 2.196434,-0.73537 2.490938,0.45774 3.705262,1.3078 2.440807,1.70863 -2.076948,0.65839 -3.909731,0.89325 -4.257429,0.54555 z m 88.802523,-3.0131 c 0.0735,-2.81516 0.33531,-3.83475 1.08806,-4.23761 1.27959,-0.68481 4.2782,-6.02969 3.52387,-6.28113 -0.31594,-0.10531 -0.90831,-1.4942 -1.31639,-3.08642 -0.58872,-2.29709 -0.99211,-2.89493 -1.9533,-2.89493 -1.07458,0 -1.1879,-0.29485 -1.00366,-2.61135 0.11423,-1.43623 0.56472,-2.907642 1.00108,-3.269796 1.13487,-0.941854 2.93441,-0.428978 2.72758,0.777362 -0.0947,0.552073 0.1925,1.003774 0.63813,1.003774 0.44563,0 1.12529,0.69147 1.51036,1.53661 0.67674,1.48529 0.73857,1.50182 1.85116,0.49494 1.10601,-1.00093 1.15031,-0.99803 1.13241,0.0741 -0.0102,0.61368 -0.40561,1.62741 -0.87857,2.25273 -0.47297,0.62533 -0.85995,1.71323 -0.85995,2.41758 0,0.70434 -0.39536,1.60874 -0.87857,2.00977 -0.48322,0.40104 -0.87858,1.22926 -0.87858,1.84051 0,0.61124 -0.72482,2.22629 -1.61072,3.589 -0.88589,1.36271 -2.19099,4.19088 -2.90022,6.28481 l -1.28951,3.80715 z m -96.650212,1.85491 c -0.40268,-0.16249 -0.732145,-0.9324 -0.732145,-1.71091 0,-1.11937 0.306323,-1.41548 1.46429,-1.41548 1.073812,0 1.464289,-0.31238 1.464289,-1.17143 0,-1.52216 1.42986,-1.49872 2.977389,0.0488 1.529974,1.52997 1.185445,1.92592 -0.964548,1.10849 -1.624727,-0.61772 -1.639561,-0.6057 -0.629784,0.51009 0.993538,1.09784 0.981573,1.17952 -0.304786,2.08052 -1.372684,0.96146 -1.995548,1.06606 -3.274705,0.54991 z m -1.427683,-7.62651 c 0.422814,-0.1692 0.927994,-0.14839 1.122623,0.0462 0.194628,0.19463 -0.151311,0.33306 -0.768752,0.30763 -0.682326,-0.0281 -0.821116,-0.16689 -0.353871,-0.35386 z m 93.238645,-1.6499 c 0,-1.65952 0.22312,-2.05 1.17143,-2.05 0.9483,0 1.17143,0.39048 1.17143,2.05 0,1.65953 -0.22313,2.05001 -1.17143,2.05001 -0.94831,0 -1.17143,-0.39048 -1.17143,-2.05001 z m -99.681519,0.47847 c 0.422814,-0.1692 0.927994,-0.14839 1.122622,0.0462 0.194628,0.19463 -0.15131,0.33306 -0.768752,0.30763 -0.682325,-0.0281 -0.821115,-0.16689 -0.35387,-0.35387 z m 105.392249,-1.79589 c -1.3464,-0.30574 -1.50287,-4.83259 -0.16704,-4.83259 1.00678,0 2.07061,1.76802 2.07061,3.44122 0,1.36624 -0.47744,1.71521 -1.90357,1.39137 z M 153.80194,110.83 c -0.1462,-0.40268 -0.3356,-1.65464 -0.4209,-2.78215 l -0.15509,-2.05 2.85833,-0.18163 c 2.56259,-0.16284 2.81327,-0.0719 2.42284,0.87857 -0.23952,0.58311 -0.57544,1.58735 -0.74649,2.23164 -0.46569,1.75408 -1.32694,2.63572 -2.57477,2.63572 -0.61496,0 -1.23772,-0.32947 -1.38392,-0.73215 z m 20.27369,-14.720922 c -0.52042,-0.627073 -0.45962,-0.891811 0.26905,-1.171432 1.36046,-0.522054 1.43133,-0.481938 1.43133,0.810174 0,1.361678 -0.73968,1.518832 -1.70038,0.361258 z m 2.60235,-4.607697 c 0.21735,-0.724824 0.76226,-1.703807 1.2109,-2.175519 0.71285,-0.749499 0.81571,-0.726176 0.81571,0.18494 0,1.380954 -1.0587,3.308439 -1.81722,3.308439 -0.35359,0 -0.44052,-0.547111 -0.20939,-1.31786 z m -43.28467,-0.845686 c -0.65962,-0.659627 -0.40174,-1.350749 0.50402,-1.350749 0.48322,0 0.87857,0.248016 0.87857,0.551147 0,0.738576 -0.91464,1.267548 -1.38259,0.799602 z m 8.85047,-0.567225 c 0.40268,-0.162483 1.06161,-0.162483 1.46429,0 0.40268,0.162484 0.0732,0.295429 -0.73214,0.295429 -0.80536,0 -1.13483,-0.132945 -0.73215,-0.295429 z m -6.77255,-2.6871 c 0.17237,-1.239574 5.8e-4,-1.30812 -2.89176,-1.153901 -1.82524,0.09732 -3.07501,-0.08122 -3.07501,-0.439287 0,-0.338608 1.37338,-0.603246 3.13066,-0.603246 2.35286,0 3.38575,0.28187 4.15739,1.134526 1.10527,1.221305 0.80165,2.379769 -0.6237,2.379769 -0.57727,0 -0.81767,-0.454176 -0.69758,-1.317861 z m 27.12618,-1.025003 c -0.20612,-0.333506 0.2983,-0.585715 1.17143,-0.585715 0.87313,0 1.37755,0.252209 1.17143,0.585715 -0.1991,0.322144 -0.72624,0.585716 -1.17143,0.585716 -0.44519,0 -0.97234,-0.263572 -1.17143,-0.585716 z m -34.57305,-2.954159 c -0.1904,-0.308074 0.19652,-0.560135 0.85982,-0.560135 1.41425,0 1.55692,0.325723 0.34618,0.790328 -0.4729,0.181468 -1.0156,0.07788 -1.206,-0.230193 z m 11.73013,-1.145851 c 0.1991,-0.322144 0.47822,-0.585716 0.62028,-0.585716 0.14206,0 0.25829,0.263572 0.25829,0.585716 0,0.322144 -0.27913,0.585716 -0.62028,0.585716 -0.34116,0 -0.45739,-0.263572 -0.25829,-0.585716 z m 8.49288,0 c 0,-0.322144 0.26357,-0.585716 0.58572,-0.585716 0.32214,0 0.58571,0.263572 0.58571,0.585716 0,0.322144 -0.26357,0.585716 -0.58571,0.585716 -0.32215,0 -0.58572,-0.263572 -0.58572,-0.585716 z m 33.49188,-0.735041 c 0.20298,-1.428981 1.25037,-1.598495 1.53339,-0.24817 0.0964,0.459697 -0.25127,0.99946 -0.7725,1.199474 -0.72583,0.278528 -0.90396,0.05582 -0.76089,-0.951304 z m -58.93898,0.20036 c -0.21644,-0.350213 -0.93332,-0.636751 -1.59306,-0.636751 -0.85318,0 -1.09688,-0.267511 -0.84401,-0.926477 0.19554,-0.509564 0.35552,-1.036708 0.35552,-1.171432 0,-0.700902 1.71361,-0.09245 2.64825,0.940318 0.7578,0.837363 0.88982,1.368111 0.44975,1.808182 -0.44008,0.44007 -0.73843,0.436008 -1.01645,-0.01384 z m 32.04755,0.128785 c 0.56988,-0.148504 1.3606,-0.138738 1.75715,0.0217 0.39654,0.160441 -0.0697,0.281945 -1.03615,0.270008 -0.96643,-0.01194 -1.29089,-0.143207 -0.721,-0.291711 z m 19.46134,-0.769673 c -0.43697,-0.707052 0.99702,-1.344198 2.40911,-1.070402 0.55587,0.107781 1.12038,0.525431 1.25445,0.92811 0.2974,0.893189 -3.1175,1.025824 -3.66356,0.142292 z m -31.62609,-2.338726 c 0.1991,-0.322144 0.62556,-0.585716 0.9477,-0.585716 0.32215,0 0.42283,0.263572 0.22373,0.585716 -0.1991,0.322144 -0.62556,0.585716 -0.94771,0.585716 -0.32214,0 -0.42282,-0.263572 -0.22372,-0.585716 z m 4.97858,-0.878574 c 0,-0.483215 0.36717,-0.878573 0.81591,-0.878573 0.44875,0 0.96762,0.395358 1.15305,0.878573 0.22932,0.5976 -0.0316,0.878574 -0.8159,0.878574 -0.63446,0 -1.15306,-0.395146 -1.15306,-0.878574 z m 40.4144,0.295083 c 0,-0.710068 1.64264,-1.483395 2.12542,-1.000612 0.17478,0.174769 -0.23195,0.611962 -0.90382,0.97154 -0.84706,0.45333 -1.2216,0.462244 -1.2216,0.02907 z m -2.16353,-1.553166 c -1.06607,-0.429771 -0.20865,-1.963354 1.09771,-1.963354 0.76031,0 1.08735,0.331844 0.96233,0.976467 -0.20639,1.064214 -0.9658,1.428017 -2.06004,0.986887 z m -39.71516,-0.791922 c 0.1991,-0.322144 0.47823,-0.585716 0.62029,-0.585716 0.14206,0 0.25829,0.263572 0.25829,0.585716 0,0.322144 -0.27913,0.585716 -0.62029,0.585716 -0.34115,0 -0.45738,-0.263572 -0.25829,-0.585716 z m 5.95478,0.195238 c -0.73627,-0.736272 -0.39006,-2.356921 0.71765,-3.359385 0.69071,-0.625088 1.25817,-2.203692 1.50644,-4.19079 0.50721,-4.059585 1.20327,-4.126555 1.17384,-0.112939 -0.0396,5.401649 -1.76598,9.295064 -3.39793,7.663114 z m 30.35961,-0.195238 c -0.1991,-0.322144 -0.0829,-0.585716 0.25829,-0.585716 0.34115,0 0.62028,0.263572 0.62028,0.585716 0,0.322144 -0.11623,0.585716 -0.25829,0.585716 -0.14206,0 -0.42119,-0.263572 -0.62028,-0.585716 z m 10.54288,-1.171432 c 0.1991,-0.322143 0.62556,-0.585715 0.94771,-0.585715 0.32214,0 0.42282,0.263572 0.22372,0.585715 -0.19909,0.322144 -0.62556,0.585716 -0.9477,0.585716 -0.32215,0 -0.42283,-0.263572 -0.22373,-0.585716 z m -18.45005,-0.585715 c 0,-0.322144 0.65893,-0.585716 1.46429,-0.585716 0.80536,0 1.46429,0.263572 1.46429,0.585716 0,0.322143 -0.65893,0.585715 -1.46429,0.585715 -0.80536,0 -1.46429,-0.263572 -1.46429,-0.585715 z m 15.33118,-2.140032 c 0.11996,-1.044624 0.58535,-1.732073 1.25916,-1.859936 0.8632,-0.163805 1.03225,0.116018 0.87857,1.454273 -0.11996,1.044624 -0.58535,1.732073 -1.25916,1.859936 -0.8632,0.163804 -1.03225,-0.116018 -0.87857,-1.454273 z m -41.10267,0.452019 c 0,-0.322144 0.26357,-0.748613 0.58571,-0.947709 0.32214,-0.199095 0.58572,-0.09842 0.58572,0.223724 0,0.322144 -0.26358,0.748612 -0.58572,0.947708 -0.32214,0.199096 -0.58571,0.09842 -0.58571,-0.223723 z m 19.32862,-3.331309 c 0,-2.440566 0.11615,-2.659962 1.31786,-2.489292 1.68773,0.239696 2.07452,2.511009 0.68843,4.04262 -1.55477,1.718003 -2.00629,1.368422 -2.00629,-1.553328 z m 31.04294,0.953878 c 0,-0.341155 -0.58579,-0.620283 -1.30176,-0.620283 h -1.30175 l 1.36549,-0.956433 c 1.14447,-0.80162 1.44854,-0.825321 1.87851,-0.146429 0.67206,1.061141 0.65881,1.540417 -0.0548,1.981436 -0.32215,0.199096 -0.58572,0.08286 -0.58572,-0.258291 z m -26.24007,-3.080289 c -1.16146,-1.161465 -0.79615,-1.573061 0.75686,-0.852753 0.80285,0.372371 1.46178,0.874717 1.46429,1.116325 0.007,0.68709 -1.44251,0.515066 -2.22115,-0.263572 z m 8.84413,-0.112677 c -0.25762,-0.448544 -1.51837,-1.251541 -2.80167,-1.784436 -1.2833,-0.532896 -2.07402,-1.1543 -1.75715,-1.380899 1.1099,-0.793702 0.86297,-1.876287 -0.42796,-1.876287 -1.12542,0 -1.18352,-0.106323 -0.43928,-0.803983 1.08397,-1.016137 4.66481,-1.722461 4.66481,-0.920139 0,0.3242 -0.39536,0.741168 -0.87858,0.926596 -1.26723,0.486282 -1.08054,1.383242 0.2879,1.383242 0.64156,0 1.49567,0.527144 1.89804,1.171431 0.52082,0.833971 1.3659,1.171432 2.93354,1.171432 2.39749,0 2.49683,0.111784 1.59565,1.795653 -0.72477,1.354231 -4.34961,1.580915 -5.0753,0.31739 z m -18.52797,-1.917805 c -0.79933,-0.799335 -0.34994,-1.44218 0.88151,-1.260978 1.6096,0.236846 2.15062,1.651456 0.63159,1.651456 -0.61744,0 -1.29834,-0.175715 -1.5131,-0.390478 z m 35.40555,-0.990048 c -0.0496,-1.232308 -0.29894,-1.584519 -0.94593,-1.336243 -1.33426,0.512004 -1.07406,-1.237407 0.29286,-1.968958 0.64428,-0.344812 1.17143,-1.092255 1.17143,-1.660984 0,-1.579746 -1.35814,-4.132699 -2.34287,-4.403971 -0.48321,-0.133117 -0.14722,-0.272606 0.74665,-0.309975 2.65781,-0.111113 3.12804,2.432256 1.66594,9.010651 -0.44585,2.005973 -0.53041,2.10224 -0.58808,0.66948 z m -39.31032,-0.951179 c 0,-0.701662 2.82776,-1.47865 3.37818,-0.928227 0.50893,0.508929 -1.02422,1.482187 -2.35318,1.493815 -0.56375,0.0049 -1.025,-0.249582 -1.025,-0.565588 z m 6.44287,-0.825652 c 0,-0.469054 4.18256,-0.697233 4.463,-0.243477 0.16052,0.25974 -0.77798,0.472255 -2.08556,0.472255 -1.30759,0 -2.37744,-0.10295 -2.37744,-0.228778 z M 87.479351,61.172336 C 86.754527,60.880993 86.16149,60.370555 86.16149,60.03803 c 0,-0.926603 0.898664,-0.723713 2.424407,0.547356 1.473005,1.227137 1.047576,1.452801 -1.106546,0.58695 z M 81.91505,60.148901 c -1.922917,-0.247783 -2.107821,-1.034555 -0.351107,-1.493947 1.205543,-0.315255 1.218113,-0.392739 0.292858,-1.804853 -1.278776,-1.951664 -1.336932,-3.724476 -0.08818,-2.688103 0.483216,0.401033 0.878574,1.009356 0.878574,1.351828 0,0.342473 0.578189,1.238134 1.284873,1.99036 1.107067,1.178422 1.167859,1.4704 0.439287,2.109975 -0.465076,0.408261 -1.57041,0.648894 -2.456305,0.53474 z m -6.507608,-1.707577 c -0.206004,-0.206004 -0.374553,-0.857769 -0.374553,-1.448366 0,-0.754923 -0.43485,-1.073812 -1.46429,-1.073812 -0.911114,0 -1.464289,-0.331906 -1.464289,-0.878574 0,-1.244369 3.850658,-1.20177 4.330203,0.04791 0.778539,2.028839 0.04466,4.424576 -1.027071,3.352848 z M 182.8046,58.262009 c 1.15393,-0.745726 2.51089,-0.745726 2.05001,0 -0.1991,0.322144 -0.93948,0.58168 -1.64529,0.576747 -1.04329,-0.0073 -1.11898,-0.115153 -0.40472,-0.576747 z m 8.20003,-4.100011 c 0,-0.322143 0.51158,-0.585715 1.13686,-0.585715 0.62527,0 1.29976,0.263572 1.49886,0.585715 0.2053,0.332194 -0.28678,0.585716 -1.13687,0.585716 -0.82437,0 -1.49885,-0.263572 -1.49885,-0.585716 z M 63.023157,53.572146 c -0.200502,-0.324419 0.05888,-0.752339 0.57641,-0.950932 1.12144,-0.430337 1.746439,0.04388 1.207379,0.9161 -0.486366,0.786957 -1.309022,0.80302 -1.783789,0.03483 z m -2.038479,-2.192298 c -0.0049,-0.724823 0.254603,-1.31786 0.576746,-1.31786 0.733857,0 0.733857,0.621585 0,1.757147 -0.459127,0.710449 -0.569494,0.626387 -0.576746,-0.439287 z m 10.702368,-0.615641 c -0.908044,-0.577051 -0.293828,-3.045083 0.757827,-3.045083 1.25,0 2.30596,2.376058 1.330627,2.994098 -0.972646,0.616339 -1.190451,0.621656 -2.088454,0.05099 z m 6.676914,-1.49567 c -0.543515,-0.829509 -0.988208,-1.649257 -0.988208,-1.821663 0,-0.570698 3.438135,-0.324836 3.807153,0.27225 0.199097,0.322144 0.07437,0.585716 -0.277166,0.585716 -0.351535,0 -0.844901,0.556176 -1.096361,1.235947 -0.449138,1.214129 -0.474652,1.209324 -1.445418,-0.27225 z M 64.490004,48.953221 c 0,-0.798639 1.594275,-1.239137 4.294344,-1.186525 l 2.441388,0.04757 -1.757148,0.804584 c -2.001168,0.916319 -4.978584,1.116287 -4.978584,0.334369 z"
         id="path2516"
         inkscape:connector-curvature="0" />
      <path
         style="fill:#1d782a;stroke-width:0.58571583"
         d="m 69.761446,248.00403 c -1.449646,-0.25794 -4.295028,-0.48852 -6.323069,-0.5124 -3.100837,-0.0365 -3.916022,-0.27209 -5.125013,-1.48109 -2.823045,-2.82304 -1.437415,-5.24014 4.835445,-8.43498 2.071189,-1.05489 3.524561,-1.26217 9.078596,-1.29484 l 6.612637,-0.0389 4.392869,-2.5735 c 2.416078,-1.41542 5.781894,-3.23075 7.479597,-4.03407 1.869406,-0.88457 3.480101,-2.146 4.084202,-3.19858 0.548611,-0.95591 1.795307,-2.1245 2.77043,-2.59689 3.84981,-1.86498 10.4306,-7.29839 20.18307,-16.66411 16.82559,-16.15831 28.56182,-28.39369 31.36114,-32.69495 2.68374,-4.12365 4.23421,-5.8507 12.39881,-13.81098 3.98016,-3.88054 4.82041,-5.06695 6.22235,-8.78573 1.22206,-3.24167 1.61832,-5.32311 1.61072,-8.46075 -0.0125,-5.17934 2.20847,-14.41394 4.38086,-18.21487 3.40261,-5.95336 6.5206,-10.55849 9.43705,-13.93812 2.95152,-3.42028 5.30037,-7.60732 8.1369,-14.504802 0.76364,-1.856912 1.99842,-4.178701 2.74395,-5.159541 2.59856,-3.418735 6.01701,-6.985727 6.69481,-6.985727 0.96532,0 1.49783,10.927026 0.95588,19.61456 l -0.43803,7.02167 -2.69605,1.27822 c -1.48282,0.70301 -3.479,2.28756 -4.43595,3.52121 -2.58521,3.33273 -5.65864,9.8322 -7.154,15.12875 -0.72759,2.57715 -1.55127,5.47644 -1.83038,6.44287 -0.2791,0.96643 -0.80837,3.47037 -1.17614,5.5643 -0.36777,2.09393 -1.42714,5.65216 -2.35415,7.90716 -1.75705,4.27413 -6.41768,20.21678 -6.41768,21.95301 0,1.79127 -4.09509,9.1348 -7.02887,12.60455 -2.76356,3.26843 -8.38584,7.79589 -13.43717,10.82055 -2.53857,1.52005 -3.56455,3.61536 -2.55443,5.21673 0.31937,0.50631 2.13729,1.51819 4.03983,2.24863 4.34648,1.66875 5.50917,3.02871 5.50917,6.44386 0,2.22844 -0.37065,3.07868 -2.3974,5.49941 -1.59696,1.90739 -2.84862,2.86344 -3.74883,2.86344 -0.74329,0 -3.55215,1.00728 -6.24191,2.2384 -2.68976,1.23112 -6.86726,2.84766 -9.28334,3.59231 -2.41608,0.74465 -5.9743,1.83907 -7.90717,2.43205 -1.93286,0.59297 -5.76046,1.59577 -8.50577,2.22842 -2.74531,0.63266 -6.26827,1.69758 -7.8288,2.3665 -1.56053,0.66892 -4.84937,1.89109 -7.30856,2.71592 -2.45917,0.82484 -4.86659,1.83678 -5.3498,2.24876 -0.48322,0.41199 -1.66929,1.14691 -2.63572,1.63315 -4.621306,2.32513 -7.924556,4.45963 -11.308365,7.30727 l -3.694051,3.10872 -6.555976,-0.0733 c -3.605783,-0.0403 -7.742045,-0.28435 -9.191692,-0.5423 z M 133.46094,128.00731 c -1.93974,-1.45233 -2.82359,-1.6753 -7.63925,-1.9272 -4.53462,-0.23719 -6.27451,-0.63426 -10.39936,-2.37329 -2.7245,-1.14864 -5.61256,-2.27116 -6.41792,-2.49449 -2.07965,-0.5767 -5.72415,-4.25098 -6.47591,-6.52884 -0.35036,-1.06161 -1.43226,-2.49646 -2.40422,-3.18855 -1.644788,-1.1712 -2.280816,-1.23822 -9.182851,-0.96775 -8.737691,0.34241 -13.043523,-0.30706 -21.839879,-3.29423 -3.423308,-1.16253 -6.768298,-2.11369 -7.43331,-2.11369 -0.665012,0 -1.415503,-0.32946 -1.667758,-0.73214 -0.594632,-0.94922 -0.939548,-32.706547 -0.44923,-41.36176 l 0.377182,-6.658097 2.346139,0.314683 c 2.705152,0.362838 5.452036,2.643289 6.70043,5.562671 0.644179,1.506422 0.739551,3.578249 0.432475,9.394942 -0.356103,6.745344 -0.29167,7.564612 0.670612,8.526894 1.679185,1.679186 4.921402,0.90038 9.621742,-2.311218 5.04829,-3.449345 10.687475,-4.728625 15.180524,-3.443784 3.653918,1.04488 9.341424,3.024202 11.488334,3.998083 0.96643,0.438393 3.60215,1.39398 5.85715,2.123527 5.6217,1.818749 8.99601,5.16741 10.7583,10.676512 2.21835,6.934781 4.24151,10.485557 8.26451,14.504737 3.79641,3.79281 8.4589,6.60026 12.16584,7.32546 2.49318,0.48777 3.66145,2.26256 3.66145,5.56241 0,2.33629 -0.28125,2.94546 -2.19644,4.75729 -1.20804,1.14285 -3.25072,2.69585 -4.53929,3.45113 -1.28858,0.75528 -2.87001,1.70304 -3.5143,2.10614 -1.00827,0.63083 -1.47694,0.50417 -3.36497,-0.90944 z"
         id="path2514"
         inkscape:connector-curvature="0" />
      <path
         style="fill:#098727;stroke-width:0.58571583"
         d="m 74.154315,247.40801 c -1.932862,-0.2301 -5.774607,-0.44698 -8.53721,-0.48194 -4.448029,-0.0563 -5.168674,-0.21873 -6.296445,-1.41918 -1.802887,-1.91909 -1.595365,-2.97679 0.985022,-5.02049 3.309807,-2.62142 4.768403,-2.99526 11.690329,-2.99626 5.082859,-5.9e-4 6.643353,-0.21323 8.30832,-1.13134 1.127503,-0.62173 2.972508,-1.57071 4.100011,-2.10884 4.905376,-2.34122 7.917912,-4.26215 11.451196,-7.3018 1.685069,-1.44965 5.254532,-4.21715 7.932132,-6.15002 2.6776,-1.93286 8.29606,-6.80894 12.48545,-10.83574 12.26748,-11.79135 31.97413,-31.53976 31.97564,-32.0434 0.004,-1.43631 5.49316,-8.10912 11.59624,-14.09763 6.48896,-6.36714 7.1307,-7.19943 8.82859,-11.4498 1.48506,-3.71759 1.83098,-5.41996 1.83098,-9.01064 0,-2.4349 0.26357,-5.44606 0.58572,-6.69148 0.32214,-1.24541 0.87804,-3.38457 1.23532,-4.75368 0.96316,-3.69079 4.73656,-11.08882 7.17166,-14.06053 1.17474,-1.43362 2.1359,-2.82257 2.1359,-3.08654 0,-0.26398 1.32078,-1.99848 2.93507,-3.85447 1.75694,-2.02001 4.01062,-5.68234 5.61462,-9.12404 1.47376,-3.162229 3.11817,-6.652738 3.65424,-7.756684 1.2581,-2.590826 5.70482,-7.494919 6.28248,-6.928672 0.72791,0.713542 0.82733,3.722763 0.46154,13.970046 l -0.34698,9.71991 -2.59875,1.07169 c -3.38807,1.39717 -4.98995,3.38671 -8.20929,10.19591 -4.29103,9.07593 -4.80757,10.73427 -6.03381,19.37126 -0.42967,3.02637 -0.87124,4.47265 -3.12958,10.25003 -1.61844,4.14037 -4.99964,15.70826 -5.61877,19.2232 -0.33026,1.87489 -0.99187,4.11525 -1.47024,4.97859 -0.47838,0.86334 -1.25304,2.36042 -1.72148,3.32685 -2.5135,5.18557 -8.12665,10.55353 -17.20176,16.45036 -3.31983,2.15715 -4.31826,4.29177 -3.05517,6.5319 0.47258,0.83814 1.64995,1.76059 2.61638,2.04988 7.62215,2.28166 9.34764,5.5557 5.26864,9.99698 -1.12596,1.22596 -2.0472,2.47793 -2.0472,2.78215 0,0.30421 -0.74396,0.55312 -1.65323,0.55312 -0.90928,0 -4.09016,1.18607 -7.06861,2.63572 -2.97846,1.44964 -5.68701,2.63572 -6.01899,2.63572 -0.33198,0 -1.43416,0.37841 -2.44927,0.84092 -1.01512,0.46251 -5.53568,1.78986 -10.04569,2.94967 -9.50071,2.44325 -25.10322,7.66154 -27.23579,9.10906 -0.80536,0.54666 -3.441077,2.14367 -5.857155,3.54893 -2.416078,1.40526 -6.068444,3.842 -8.11637,5.415 -3.437736,2.64049 -3.999637,2.86976 -7.321448,2.98732 -1.97887,0.07 -5.17938,-0.0609 -7.112242,-0.29104 z M 132.7259,126.20504 c -1.33533,-0.88435 -2.75101,-1.16464 -5.89728,-1.16757 -4.09014,-0.004 -9.12155,-1.13014 -11.96705,-2.67895 -0.80536,-0.43835 -3.04573,-1.39954 -4.97859,-2.13596 -3.29093,-1.25386 -3.63755,-1.57203 -5.45346,-5.00594 -1.51095,-2.85719 -2.4798,-3.94279 -4.38726,-4.9159 -2.255546,-1.1507 -3.042573,-1.22048 -10.007396,-0.88733 -7.749103,0.37066 -13.251814,-0.36215 -16.759123,-2.23185 -1.837426,-0.9795 -7.787805,-2.68761 -10.689314,-3.06844 -1.208039,-0.15857 -2.20557,-0.45829 -2.216736,-0.66607 -0.01547,-0.28785 0.03265,-33.823268 0.06252,-43.574303 0.0043,-1.388317 0.24111,-1.610718 1.71541,-1.610718 0.940762,0 1.976949,0.329465 2.302638,0.732145 0.325689,0.402679 1.284518,1.522861 2.130731,2.489292 l 1.538569,1.757147 -0.416457,8.055724 c -0.529774,10.247654 -0.202015,10.98004 4.913804,10.98004 2.715514,0 3.821438,-0.298593 5.40437,-1.459149 4.455529,-3.26666 8.82853,-4.982777 12.69832,-4.983263 2.023742,-2.54e-4 4.527677,0.353536 5.5643,0.786199 1.036618,0.432665 2.924234,0.981334 4.194704,1.219266 1.27046,0.237932 3.24724,0.922516 4.39287,1.521298 3.66781,1.917069 6.32273,2.915649 7.75185,2.915649 1.62192,0 3.53929,1.238499 5.82866,3.76494 1.75603,1.937864 2.08596,2.660719 3.94592,8.645195 2.84925,9.167528 11.74239,18.039158 19.49416,19.447008 2.53266,0.45998 3.41906,1.3798 3.73494,3.87578 0.18985,1.50007 -0.17222,2.26443 -1.941,4.09758 -1.92446,1.99452 -7.34784,5.2762 -8.70231,5.26575 -0.27536,-0.002 -1.29137,-0.52753 -2.2578,-1.16757 z"
         id="path2512"
         inkscape:connector-curvature="0" />
    </g>
    <circle
       style="opacity:1;fill:#098727;fill-opacity:1;stroke:none;stroke-width:4.86499977;stroke-linecap:square;stroke-miterlimit:4;stroke-dasharray:none;stroke-opacity:1"
       id="path2528"
       cx="220.73808"
       cy="97.428566"
       r="7.1815472" />
    <circle
       r="7.1815472"
       cy="118.59523"
       cx="220.73808"
       id="circle2530"
       style="opacity:1;fill:#e4b015;fill-opacity:1;stroke:none;stroke-width:4.86499977;stroke-linecap:square;stroke-miterlimit:4;stroke-dasharray:none;stroke-opacity:1" />
    <circle
       style="opacity:1;fill:#bc042f;fill-opacity:1;stroke:none;stroke-width:4.86499977;stroke-linecap:square;stroke-miterlimit:4;stroke-dasharray:none;stroke-opacity:1"
       id="circle2532"
       cx="220.73808"
       cy="140.74464"
       r="7.1815472" />
    <flowRoot
       xml:space="preserve"
       id="flowRoot2534"
       style="font-style:normal;font-weight:normal;font-size:37.33333206px;line-height:1.25;font-family:sans-serif;letter-spacing:0px;word-spacing:0px;fill:#dddddd;fill-opacity:1;stroke:none;"
       transform="matrix(0.26458333,0,0,0.26458333,-2.1166667,5.2916667)"><flowRegion
         id="flowRegion2536"
         style="font-size:37.33333206px;fill:#dddddd;fill-opacity:1;"><rect
           id="rect2538"
           width="311.42856"
           height="84.285713"
           x="884.28571"
           y="326.80536"
           style="font-size:37.33333206px;fill:#dddddd;fill-opacity:1;" /></flowRegion><flowPara
         id="flowPara2540"
         style="-inkscape-font-specification:'sans-serif Bold';font-family:sans-serif;font-weight:bold;font-style:normal;font-stretch:normal;font-variant:normal;font-size:42.66666721px">Good</flowPara></flowRoot>    <flowRoot
       transform="matrix(0.26458333,0,0,0.26458333,-2.1166667,26.458333)"
       style="font-style:normal;font-weight:bold;font-size:42.66666721px;line-height:1.25;font-family:sans-serif;letter-spacing:0px;word-spacing:0px;fill:#dddddd;fill-opacity:1;stroke:none;-inkscape-font-specification:'sans-serif Bold';font-stretch:normal;font-variant:normal;"
       id="flowRoot2548"
       xml:space="preserve"><flowRegion
         style="font-size:42.66666721px;fill:#dddddd;fill-opacity:1;-inkscape-font-specification:'sans-serif Bold';font-family:sans-serif;font-weight:bold;font-style:normal;font-stretch:normal;font-variant:normal;"
         id="flowRegion2544"><rect
           style="font-style:normal;font-variant:normal;font-weight:bold;font-stretch:normal;font-size:42.66666794px;font-family:sans-serif;-inkscape-font-specification:'sans-serif Bold';fill:#dddddd;fill-opacity:1"
           y="326.80536"
           x="884.28571"
           height="65.325569"
           width="434.87741"
           id="rect2542" /></flowRegion><flowPara
         id="flowPara2546">Moderate compaction</flowPara></flowRoot>    <flowRoot
       xml:space="preserve"
       id="flowRoot2556"
       style="font-style:normal;font-weight:bold;font-size:42.66666721px;line-height:1.25;font-family:sans-serif;letter-spacing:0px;word-spacing:0px;fill:#dddddd;fill-opacity:1;stroke:none;-inkscape-font-specification:'sans-serif Bold';font-stretch:normal;font-variant:normal;"
       transform="matrix(0.26458333,0,0,0.26458333,-2.1166667,48.229761)"><flowRegion
         id="flowRegion2552"
         style="font-size:42.66666721px;fill:#dddddd;fill-opacity:1;-inkscape-font-specification:'sans-serif Bold';font-family:sans-serif;font-weight:bold;font-style:normal;font-stretch:normal;font-variant:normal;"><rect
           id="rect2550"
           width="416.65256"
           height="64.488724"
           x="884.28571"
           y="326.80536"
           style="font-style:normal;font-variant:normal;font-weight:bold;font-stretch:normal;font-size:42.66666794px;font-family:sans-serif;-inkscape-font-specification:'sans-serif Bold';fill:#dddddd;fill-opacity:1" /></flowRegion><flowPara
         id="flowPara2554">Compacted</flowPara></flowRoot>  </g>
</svg>
