<?xml version="1.0" encoding="utf-8" standalone="no"?>
<!DOCTYPE svg PUBLIC "-//W3C//DTD SVG 1.0//EN" "http://www.w3.org/TR/2001/REC-SVG-20010904/DTD/svg10.dtd">
<svg xmlns:svg="http://www.w3.org/2000/svg" xmlns="http://www.w3.org/2000/svg" version="1.0" width="220" height="210">

<g  stroke="#000000" stroke-width="2">
 <path  fill="#ffffff" d="M 110.00  25.29 A 60 60 0 1 0  51.27 127.00 A 60 60 0 0 1  91.25  82.27 A 60 60 0 0 1 110.00  25.29 Z" />
 <path  fill="#ffffff" d="M 168.73 127.00 A 60 60 0 1 0 110.00  25.29 A 60 60 0 0 1 128.75  82.27 A 60 60 0 0 1 168.73 127.00 Z" />
 <path  fill="#ffffff" d="M  51.27 127.00 A 60 60 0 1 0 168.73 127.00 A 60 60 0 0 1 110.00 114.71 A 60 60 0 0 1  51.27 127.00 Z" />

 <path  fill="#ffffff" d="M 110.00  25.29 A 60 60 0 0 0  91.25  82.27 A 60 60 0 0 1 128.75  82.27 A 60 60 0 0 0 110.00  25.29 Z" />
 <path  fill="#ffffff" d="M  51.27 127.00 A 60 60 0 0 0 110.00 114.71 A 60 60 0 0 1  91.25  82.27 A 60 60 0 0 0  51.27 127.00 Z" />
 <path  fill="#ffffff" d="M 168.73 127.00 A 60 60 0 0 0 128.75  82.27 A 60 60 0 0 1 110.00 114.71 A 60 60 0 0 0 168.73 127.00 Z" />

 <path  fill="#ffffff" d="M 110.00 114.71 A 60 60 0 0 0 128.75  82.27 A 60 60 0 0 0  91.25  82.27 A 60 60 0 0 0 110.00 114.71 Z" />
</g>
</svg>
