<?xml version="1.0" encoding="UTF-8" standalone="no"?>
<svg
   xmlns:dc="http://purl.org/dc/elements/1.1/"
   xmlns:cc="http://creativecommons.org/ns#"
   xmlns:rdf="http://www.w3.org/1999/02/22-rdf-syntax-ns#"
   xmlns:svg="http://www.w3.org/2000/svg"
   xmlns="http://www.w3.org/2000/svg"
   xmlns:sodipodi="http://sodipodi.sourceforge.net/DTD/sodipodi-0.dtd"
   xmlns:inkscape="http://www.inkscape.org/namespaces/inkscape"
   version="1.0"
   width="220"
   height="210"
   id="svg18"
   sodipodi:docname="soil_health_logo.svg"
   inkscape:version="0.92.3 (2405546, 2018-03-11)">
  <metadata
     id="metadata24">
    <rdf:RDF>
      <cc:Work
         rdf:about="">
        <dc:format>image/svg+xml</dc:format>
        <dc:type
           rdf:resource="http://purl.org/dc/dcmitype/StillImage" />
        <dc:title></dc:title>
      </cc:Work>
    </rdf:RDF>
  </metadata>
  <defs
     id="defs22" />
  <sodipodi:namedview
     pagecolor="#ffffff"
     bordercolor="#666666"
     borderopacity="1"
     objecttolerance="10"
     gridtolerance="10"
     guidetolerance="10"
     inkscape:pageopacity="0"
     inkscape:pageshadow="2"
     inkscape:window-width="1920"
     inkscape:window-height="1001"
     id="namedview20"
     showgrid="false"
     inkscape:zoom="3.1786133"
     inkscape:cx="124.17607"
     inkscape:cy="111.51377"
     inkscape:window-x="-9"
     inkscape:window-y="-9"
     inkscape:window-maximized="1"
     inkscape:current-layer="g16" />
  <g
     stroke="#000000"
     stroke-width="2"
     id="g16">
    <path
       fill="#ffffff"
       d="M 110.00  25.29 A 60 60 0 1 0  51.27 127.00 A 60 60 0 0 1  91.25  82.27 A 60 60 0 0 1 110.00  25.29 Z"
       id="path2"
       style="fill:#64b269;stroke:none;fill-opacity:1" />
    <path
       fill="#ffffff"
       d="M 168.73 127.00 A 60 60 0 1 0 110.00  25.29 A 60 60 0 0 1 128.75  82.27 A 60 60 0 0 1 168.73 127.00 Z"
       id="path4"
       style="fill:#444444;fill-opacity:1;stroke:none" />
    <path
       fill="#ffffff"
       d="M  51.27 127.00 A 60 60 0 1 0 168.73 127.00 A 60 60 0 0 1 110.00 114.71 A 60 60 0 0 1  51.27 127.00 Z"
       id="path6"
       style="fill-opacity:1;fill:#8e7ebf;stroke:none" />
    <path
       fill="#ffffff"
       d="M 110.00  25.29 A 60 60 0 0 0  91.25  82.27 A 60 60 0 0 1 128.75  82.27 A 60 60 0 0 0 110.00  25.29 Z"
       id="path8"
       style="stroke:#e3e3e3;stroke-opacity:1;fill:#64b269;fill-opacity:1" />
    <path
       fill="#ffffff"
       d="M  51.27 127.00 A 60 60 0 0 0 110.00 114.71 A 60 60 0 0 1  91.25  82.27 A 60 60 0 0 0  51.27 127.00 Z"
       id="path10"
       style="stroke:#e3e3e3;stroke-opacity:1;fill:#64b269;fill-opacity:1" />
    <path
       fill="#ffffff"
       d="M 168.73 127.00 A 60 60 0 0 0 128.75  82.27 A 60 60 0 0 1 110.00 114.71 A 60 60 0 0 0 168.73 127.00 Z"
       id="path12"
       style="stroke:#e3e3e3;stroke-opacity:1;fill:#8e7ebf;fill-opacity:1" />
    <path
       fill="#ffffff"
       d="M 110.00 114.71 A 60 60 0 0 0 128.75  82.27 A 60 60 0 0 0  91.25  82.27 A 60 60 0 0 0 110.00 114.71 Z"
       id="path14"
       style="stroke:#e3e3e3;stroke-opacity:1;fill:#64b269;fill-opacity:1" />
    <flowRoot
       xml:space="preserve"
       id="flowRoot4545"
       style="font-style:normal;font-weight:normal;font-size:32px;line-height:1.25;font-family:sans-serif;letter-spacing:0px;word-spacing:0px;fill:#000000;fill-opacity:1;stroke:none"><flowRegion
         id="flowRegion4547"><rect
           id="rect4549"
           width="39.010723"
           height="35.864697"
           x="41.842144"
           y="44.833637" /></flowRegion><flowPara
         id="flowPara4551">Bvb</flowPara></flowRoot>    <text
       xml:space="preserve"
       style="font-style:normal;font-weight:normal;font-size:32px;line-height:1.25;font-family:sans-serif;letter-spacing:0px;word-spacing:0px;fill:#f7f7f7;fill-opacity:1;stroke:none"
       x="46.875786"
       y="72.204063"
       id="text4555"><tspan
         sodipodi:role="line"
         id="tspan4553"
         x="46.875786"
         y="72.204063">B</tspan></text>
    <text
       id="text4559"
       y="72.204063"
       x="144.40259"
       style="font-style:normal;font-weight:normal;font-size:32px;line-height:1.25;font-family:sans-serif;letter-spacing:0px;word-spacing:0px;fill:#f7f7f7;fill-opacity:1;stroke:none"
       xml:space="preserve"><tspan
         y="72.204063"
         x="144.40259"
         id="tspan4557"
         sodipodi:role="line">P</tspan></text>
    <text
       xml:space="preserve"
       style="font-style:normal;font-weight:normal;font-size:32px;line-height:1.25;font-family:sans-serif;letter-spacing:0px;word-spacing:0px;fill:#f7f7f7;fill-opacity:1;stroke:none"
       x="99.729019"
       y="164.38263"
       id="text4567"><tspan
         sodipodi:role="line"
         id="tspan4565"
         x="99.729019"
         y="164.38263">C</tspan></text>
  </g>
</svg>
